<?xml version="1.0" encoding="UTF-8"?>
<svg width="895px" height="73px" viewBox="0 0 895 73" version="1.1" xmlns="http://www.w3.org/2000/svg" xmlns:xlink="http://www.w3.org/1999/xlink">
    <title>Airdrop Banner</title>
    <g id="landing" stroke="none" stroke-width="1" fill="none" fill-rule="evenodd">
        <g id="Artboard" transform="translate(-267.000000, -928.000000)">
            <g id="Airdrop-Banner" transform="translate(267.000000, 928.000000)">
                <rect id="Rectangle" fill="#365A68" x="0" y="0" width="895" height="73" rx="8"></rect>
                <g id="Group-6">
                    <path d="M8,0 L119.725505,0 C122.282095,-1.30046597e-14 124.684705,1.22191158 126.190546,3.28796915 L167.734866,60.2879691 C170.337248,63.8585131 169.552399,68.862659 165.981855,71.4650418 C164.613242,72.4625516 162.963378,73 161.269824,73 L8,73 C3.581722,73 5.41083001e-16,69.418278 0,65 L0,8 C-5.41083001e-16,3.581722 3.581722,8.11624501e-16 8,0 Z" id="Rectangle" fill="#808189"></path>
                    <g id="airdrop" transform="translate(49.000000, 10.000000)" fill="#FFFFFF" fill-rule="nonzero">
                        <g id="Group" transform="translate(20.000000, 26.000000) scale(-1, 1) rotate(-180.000000) translate(-20.000000, -26.000000) ">
                            <path d="M19.2015297,51.9583049 C16.6381859,51.6224328 15.0104867,51.255255 13.3510617,50.646122 C6.79832256,48.2212631 1.76681258,42.4589071 0.320327404,35.7202403 C0.192886145,35.1217193 0.0756616953,34.0721852 0.0331812755,33.2221581 C-0.051779564,31.1963132 -0.17975855,31.2907607 2.55404467,31.2594551 L4.61784025,31.2281494 L8.47925663,26.1057014 C10.606504,23.2924407 12.340673,20.9625599 12.340673,20.9413357 C12.340673,20.9100301 11.8196157,20.888806 11.181334,20.888806 C10.0962012,20.888806 9.98973131,20.8675818 9.71333971,20.6367692 L9.41543905,20.3847325 L9.38371317,10.843417 C9.36220409,5.60582796 9.38371317,1.11320654 9.41543905,0.861169785 C9.45791947,0.609133034 9.57514392,0.325790664 9.71333971,0.21011906 C9.92627954,0 10.1177103,0 19.9570359,0 L29.9883299,0 L30.2754761,0.241424678 L30.5626222,0.49346143 L30.5626222,10.444403 L30.5626222,20.3948139 L30.2754761,20.6468507 C30.0523194,20.8251335 29.8608887,20.8882754 29.4565181,20.8882754 C29.169372,20.8882754 28.9354608,20.919581 28.9354608,20.9514172 C28.9354608,20.9827228 30.6373662,23.3237463 32.7221332,26.1470885 L36.5093432,31.279618 L38.0198179,31.279618 C39.4985667,31.279618 39.5410471,31.2902301 39.7857128,31.5422668 C40.019624,31.7943036 40.0303785,31.8362213 39.966389,33.2428516 C39.8599191,35.6358743 39.253901,37.8925318 38.0838074,40.286085 C35.3182783,45.9439121 30.1270635,50.047601 23.9894494,51.4335379 C23.4683921,51.5492095 22.734395,51.7168802 22.3832593,51.8113277 C21.6481868,51.9795291 19.9995163,52.0527524 19.2015297,51.9583049 Z M21.3395316,50.1638032 C22.7435363,50.0380502 23.3393377,49.7860134 24.2647655,48.9460678 C24.9030473,48.3581589 25.8177206,47.0985057 26.307052,46.132807 C27.6368505,43.4877476 28.5622784,39.1214099 28.8709336,33.9883498 L28.9349231,32.9595093 L20.3716233,32.9595093 L11.8083235,32.9595093 L11.8083235,33.6206415 C11.819078,36.3394548 12.5740465,41.0941944 13.4145135,43.6448063 C14.2125001,46.0696652 15.0524294,47.570743 16.275758,48.7672543 C17.63782,50.1218856 18.7229528,50.4153094 21.3395316,50.1638032 Z M14.297461,49.1036571 C14.244226,49.0304338 14.0635498,48.7571729 13.8828736,48.4950547 C12.3191639,46.301539 11.1173445,42.5857214 10.5425145,38.1981595 C10.3403292,36.6864696 10.106418,34.0732464 10.106418,33.3065241 L10.106418,32.9600399 L5.86214014,32.9600399 L1.61786225,32.9600399 L1.67109721,33.4641134 C2.32013349,40.2027802 6.73433306,46.0601143 13.2978268,48.8728445 C14.1700197,49.2506343 14.4146854,49.3031641 14.297461,49.1036571 Z M27.8815162,48.3268533 C29.7216174,47.4136843 31.3068361,46.2697028 32.8705458,44.7267073 C36.0404454,41.5881864 37.9128103,37.7253916 38.3273977,33.4641134 L38.3806326,32.9600399 L34.4552267,32.9600399 L30.5298209,32.9600399 L30.5298209,33.7368437 C30.5298209,35.6788532 30.0937244,39.1951638 29.5726671,41.5356567 C28.9236308,44.4221407 27.9772316,46.7944698 26.753903,48.6415013 L26.5624723,48.9248436 L26.8388639,48.8197841 C26.9883519,48.7677849 27.4561743,48.5470538 27.8815162,48.3268533 Z M19.1482947,26.0850079 L19.1482947,20.8893366 L16.8188621,20.8893366 L14.4894294,20.8893366 L10.681248,25.9486427 C8.57497201,28.7194552 6.81983163,31.0604787 6.77735121,31.1443141 C6.70260718,31.2594551 7.73450497,31.2806792 12.9257198,31.2806792 L19.1488324,31.2806792 L19.1488324,26.0850079 L19.1482947,26.0850079 Z M34.3600491,31.2175374 C34.3600491,31.1862318 32.6581437,28.8452083 30.5733767,26.0218661 L26.7759498,20.8893366 L23.8184523,20.8893366 L20.8507379,20.8893366 L20.8507379,26.0850079 L20.8507379,31.2806792 L27.6056623,31.2806792 C31.3175907,31.2806792 34.3600491,31.248843 34.3600491,31.2175374 Z M16.7231467,14.6542126 C16.7548726,10.3504861 16.7656271,10.0883679 16.9570579,9.87824886 C17.1484886,9.6681298 17.244204,9.65804833 19.9462813,9.65804833 C22.5418888,9.65804833 22.7542909,9.6686604 22.9887398,9.85755531 L23.24416,10.0570623 L23.2758859,14.6335191 L23.3076118,19.2099759 L26.116159,19.2099759 L28.9349231,19.2099759 L28.9349231,10.4454642 L28.9349231,1.68095248 L19.9995163,1.68095248 L11.0641095,1.68095248 L11.0641095,10.4454642 L11.0641095,19.2099759 L13.8828736,19.2099759 L16.6908831,19.2099759 L16.7231467,14.6542126 Z M21.5949518,15.2208974 L21.5949518,11.2323495 L19.9995163,11.2323495 L18.4040808,11.2323495 L18.4040808,15.2208974 L18.4040808,19.2094453 L19.9995163,19.2094453 L21.5949518,19.2094453 L21.5949518,15.2208974 Z" id="Shape"></path>
                        </g>
                    </g>
                </g>
                <g id="Group-5" transform="translate(718.000000, 0.000000)">
                    <path d="M8,0 L119.725505,0 C122.282095,-1.30046597e-14 124.684705,1.22191158 126.190546,3.28796915 L167.734866,60.2879691 C170.337248,63.8585131 169.552399,68.862659 165.981855,71.4650418 C164.613242,72.4625516 162.963378,73 161.269824,73 L8,73 C3.581722,73 5.41083001e-16,69.418278 0,65 L0,8 C-5.41083001e-16,3.581722 3.581722,8.11624501e-16 8,0 Z" id="Rectangle-Copy" fill="#808189" transform="translate(88.500000, 36.500000) scale(-1, 1) translate(-88.500000, -36.500000) "></path>
                    <g id="airdrop-copy" transform="translate(89.000000, 11.000000)" fill="#FFFFFF" fill-rule="nonzero">
                        <g id="Group" transform="translate(20.000000, 26.000000) scale(-1, 1) rotate(-180.000000) translate(-20.000000, -26.000000) ">
                            <path d="M19.2015297,51.9583049 C16.6381859,51.6224328 15.0104867,51.255255 13.3510617,50.646122 C6.79832256,48.2212631 1.76681258,42.4589071 0.320327404,35.7202403 C0.192886145,35.1217193 0.0756616953,34.0721852 0.0331812755,33.2221581 C-0.051779564,31.1963132 -0.17975855,31.2907607 2.55404467,31.2594551 L4.61784025,31.2281494 L8.47925663,26.1057014 C10.606504,23.2924407 12.340673,20.9625599 12.340673,20.9413357 C12.340673,20.9100301 11.8196157,20.888806 11.181334,20.888806 C10.0962012,20.888806 9.98973131,20.8675818 9.71333971,20.6367692 L9.41543905,20.3847325 L9.38371317,10.843417 C9.36220409,5.60582796 9.38371317,1.11320654 9.41543905,0.861169785 C9.45791947,0.609133034 9.57514392,0.325790664 9.71333971,0.21011906 C9.92627954,0 10.1177103,0 19.9570359,0 L29.9883299,0 L30.2754761,0.241424678 L30.5626222,0.49346143 L30.5626222,10.444403 L30.5626222,20.3948139 L30.2754761,20.6468507 C30.0523194,20.8251335 29.8608887,20.8882754 29.4565181,20.8882754 C29.169372,20.8882754 28.9354608,20.919581 28.9354608,20.9514172 C28.9354608,20.9827228 30.6373662,23.3237463 32.7221332,26.1470885 L36.5093432,31.279618 L38.0198179,31.279618 C39.4985667,31.279618 39.5410471,31.2902301 39.7857128,31.5422668 C40.019624,31.7943036 40.0303785,31.8362213 39.966389,33.2428516 C39.8599191,35.6358743 39.253901,37.8925318 38.0838074,40.286085 C35.3182783,45.9439121 30.1270635,50.047601 23.9894494,51.4335379 C23.4683921,51.5492095 22.734395,51.7168802 22.3832593,51.8113277 C21.6481868,51.9795291 19.9995163,52.0527524 19.2015297,51.9583049 Z M21.3395316,50.1638032 C22.7435363,50.0380502 23.3393377,49.7860134 24.2647655,48.9460678 C24.9030473,48.3581589 25.8177206,47.0985057 26.307052,46.132807 C27.6368505,43.4877476 28.5622784,39.1214099 28.8709336,33.9883498 L28.9349231,32.9595093 L20.3716233,32.9595093 L11.8083235,32.9595093 L11.8083235,33.6206415 C11.819078,36.3394548 12.5740465,41.0941944 13.4145135,43.6448063 C14.2125001,46.0696652 15.0524294,47.570743 16.275758,48.7672543 C17.63782,50.1218856 18.7229528,50.4153094 21.3395316,50.1638032 Z M14.297461,49.1036571 C14.244226,49.0304338 14.0635498,48.7571729 13.8828736,48.4950547 C12.3191639,46.301539 11.1173445,42.5857214 10.5425145,38.1981595 C10.3403292,36.6864696 10.106418,34.0732464 10.106418,33.3065241 L10.106418,32.9600399 L5.86214014,32.9600399 L1.61786225,32.9600399 L1.67109721,33.4641134 C2.32013349,40.2027802 6.73433306,46.0601143 13.2978268,48.8728445 C14.1700197,49.2506343 14.4146854,49.3031641 14.297461,49.1036571 Z M27.8815162,48.3268533 C29.7216174,47.4136843 31.3068361,46.2697028 32.8705458,44.7267073 C36.0404454,41.5881864 37.9128103,37.7253916 38.3273977,33.4641134 L38.3806326,32.9600399 L34.4552267,32.9600399 L30.5298209,32.9600399 L30.5298209,33.7368437 C30.5298209,35.6788532 30.0937244,39.1951638 29.5726671,41.5356567 C28.9236308,44.4221407 27.9772316,46.7944698 26.753903,48.6415013 L26.5624723,48.9248436 L26.8388639,48.8197841 C26.9883519,48.7677849 27.4561743,48.5470538 27.8815162,48.3268533 Z M19.1482947,26.0850079 L19.1482947,20.8893366 L16.8188621,20.8893366 L14.4894294,20.8893366 L10.681248,25.9486427 C8.57497201,28.7194552 6.81983163,31.0604787 6.77735121,31.1443141 C6.70260718,31.2594551 7.73450497,31.2806792 12.9257198,31.2806792 L19.1488324,31.2806792 L19.1488324,26.0850079 L19.1482947,26.0850079 Z M34.3600491,31.2175374 C34.3600491,31.1862318 32.6581437,28.8452083 30.5733767,26.0218661 L26.7759498,20.8893366 L23.8184523,20.8893366 L20.8507379,20.8893366 L20.8507379,26.0850079 L20.8507379,31.2806792 L27.6056623,31.2806792 C31.3175907,31.2806792 34.3600491,31.248843 34.3600491,31.2175374 Z M16.7231467,14.6542126 C16.7548726,10.3504861 16.7656271,10.0883679 16.9570579,9.87824886 C17.1484886,9.6681298 17.244204,9.65804833 19.9462813,9.65804833 C22.5418888,9.65804833 22.7542909,9.6686604 22.9887398,9.85755531 L23.24416,10.0570623 L23.2758859,14.6335191 L23.3076118,19.2099759 L26.116159,19.2099759 L28.9349231,19.2099759 L28.9349231,10.4454642 L28.9349231,1.68095248 L19.9995163,1.68095248 L11.0641095,1.68095248 L11.0641095,10.4454642 L11.0641095,19.2099759 L13.8828736,19.2099759 L16.6908831,19.2099759 L16.7231467,14.6542126 Z M21.5949518,15.2208974 L21.5949518,11.2323495 L19.9995163,11.2323495 L18.4040808,11.2323495 L18.4040808,15.2208974 L18.4040808,19.2094453 L19.9995163,19.2094453 L21.5949518,19.2094453 L21.5949518,15.2208974 Z" id="Shape"></path>
                        </g>
                    </g>
                </g>
                <text id="Join-AirDrop" font-family="Lato-Bold, Lato" font-size="25" font-weight="bold" fill="#FFFFFF">
                    <tspan x="382" y="46">Join AirDrop</tspan>
                </text>
            </g>
        </g>
    </g>
</svg>