<?xml version="1.0" encoding="UTF-8"?>
<svg width="46px" height="46px" viewBox="0 0 46 46" version="1.1" xmlns="http://www.w3.org/2000/svg" xmlns:xlink="http://www.w3.org/1999/xlink">
    <title>auto-burn</title>
    <g id="landing" stroke="none" stroke-width="1" fill="none" fill-rule="evenodd">
        <g id="Artboard" transform="translate(-818.000000, -1237.000000)" fill="#AA6D2D" fill-rule="nonzero">
            <g id="Features" transform="translate(280.000000, 1237.000000)">
                <g id="Group-7-Copy-2" transform="translate(484.000000, 0.000000)">
                    <g id="auto-burn" transform="translate(54.000000, 0.000000)">
                        <g id="Group" transform="translate(23.000000, 23.000000) scale(-1, 1) rotate(-180.000000) translate(-23.000000, -23.000000) ">
                            <path d="M35.6936403,45.9983287 C35.6936403,45.9687063 35.7823557,45.5450598 35.880459,45.0626388 C37.1783327,39.0836272 36.5296305,34.0506498 33.9925573,30.3572607 C33.4419584,29.549464 32.1736565,28.229624 31.6718745,27.9442151 L31.367238,27.7669512 L31.367238,31.3225729 L31.367238,34.8880688 L30.7082091,34.5236669 C27.2764714,32.6424129 25.1623219,29.0769171 25.1721448,25.1761716 C25.1820364,22.7828742 25.8800249,20.7140121 27.2961859,18.8426322 C31.0424175,13.927674 38.2203869,13.3267636 42.7336079,17.5524145 C44.0906252,18.8327581 45.1622512,20.6157411 45.6832782,22.4574986 C45.9193833,23.2949176 45.9489551,23.6099489 45.9879148,25.4813287 C46.0864875,29.6279867 45.5945628,32.100277 44.0507267,35.2327224 C42.8706708,37.6062715 40.7959504,40.5219565 38.4165935,43.1517625 C37.1586182,44.5308472 35.7030281,46.0575734 35.6936403,45.9983287 Z" id="Path"></path>
                            <path d="M10.4228884,39.8420532 L10.4228884,37.7242907 L9.0560138,37.7242907 C7.44364624,37.7242907 6.69590198,37.5371527 5.90966743,36.9559905 C4.59207915,35.9610559 4.1297263,34.8086056 4.1297263,32.4839569 L4.1297263,31.4203737 L2.06486315,31.4203737 L0,31.4203737 L0,29.3524519 L0,27.28406 L2.06486315,27.28406 L4.1297263,27.28406 L4.1297263,25.1662974 L4.1297263,23.0485349 L2.06486315,23.0485349 L0,23.0485349 L0,20.980143 L0,18.911751 L2.06486315,18.911751 L4.1297263,18.911751 L4.1297263,16.7939885 L4.1297263,14.676226 L2.06486315,14.676226 L0,14.676226 L0,12.607834 L0,10.5394421 L2.06486315,10.5394421 L4.1297263,10.5394421 L4.1297263,9.43636238 C4.1297263,8.82557785 4.17901264,8.05727768 4.22782959,7.73237228 C4.44422011,6.41253227 5.35859916,5.20083732 6.57808414,4.59992691 C7.21739845,4.29429955 7.2662154,4.28489563 8.82976601,4.25527328 L10.4228884,4.21577682 L10.4228884,2.10788841 L10.4228884,0 L12.4877516,0 L14.5526147,0 L14.5526147,2.11776253 L14.5526147,4.23552505 L16.696336,4.21577682 L18.8302001,4.18615448 L18.8597719,2.0980143 L18.8794864,0 L20.9443495,0 L23.0092127,0 L23.0092127,2.11776253 L23.0092127,4.23552505 L25.1233622,4.23552505 L27.2375117,4.23552505 L27.2375117,2.11776253 L27.2375117,0 L29.3023748,0 L31.367238,0 L31.367238,2.10788841 L31.367238,4.21577682 L32.9697483,4.25527328 C34.5135843,4.28489563 34.5825852,4.29476974 35.2017156,4.59005279 C35.9982768,4.97420288 36.6272644,5.53561683 37.040331,6.21504997 C37.5120717,7.00309837 37.6599307,7.72202797 37.6599307,9.20925774 L37.6599307,10.4896013 L35.5950676,10.4896013 L33.5302044,10.4896013 L33.5302044,9.43542198 L33.5302044,8.37230896 L20.8950632,8.37230896 L8.25945259,8.37230896 L8.25945259,20.980143 L8.25945259,33.587977 L15.870203,33.587977 L23.4809534,33.587977 L24.1789419,34.4644222 C25.7523498,36.4444173 27.9646026,38.0397922 30.3932459,38.965608 L31.3667686,39.3300098 L31.3667686,40.6498498 L31.3667686,41.9598157 L29.3019054,41.9598157 L27.2370423,41.9598157 L27.2370423,39.8420532 L27.2370423,37.7242907 L25.1228928,37.7242907 L23.0087433,37.7242907 L23.0087433,39.8420532 L23.0087433,41.9598157 L20.9438802,41.9598157 L18.879017,41.9598157 L18.8593025,39.8716756 L18.8297307,37.7736613 L16.6958666,37.7440389 L14.5521453,37.7242907 L14.5521453,39.8420532 L14.5521453,41.9598157 L12.4872822,41.9598157 L10.422419,41.9598157 L10.422419,39.8420532 L10.4228884,39.8420532 Z" id="Path"></path>
                        </g>
                    </g>
                </g>
            </g>
        </g>
    </g>
</svg>