<?xml version="1.0" encoding="UTF-8"?>
<svg width="124px" height="29px" viewBox="0 0 124 29" version="1.1" xmlns="http://www.w3.org/2000/svg" xmlns:xlink="http://www.w3.org/1999/xlink">
    <title>bscscan</title>
    <g id="landing" stroke="none" stroke-width="1" fill="none" fill-rule="evenodd">
        <g id="Artboard" transform="translate(-867.000000, -840.000000)" fill="#858785" fill-rule="nonzero">
            <g id="Markets" transform="translate(291.000000, 790.000000)">
                <g id="bscscan" transform="translate(576.000000, 50.000000)">
                    <g id="bscscan-logo-circle">
                        <path d="M6.02626929,13.7839044 C6.02632928,13.4563834 6.15662896,13.1423818 6.38834815,12.9113517 C6.62006734,12.6803216 6.93411012,12.5513021 7.26101532,12.5528302 L9.30809426,12.5595325 C9.98778246,12.5595325 10.5387786,13.1115606 10.5387786,13.7925216 L10.5387786,21.5480735 C10.7693378,21.479614 11.0644058,21.4066065 11.3891,21.3300085 C11.852237,21.2208353 12.1795897,20.8068393 12.1796911,20.3301646 L12.1796911,10.7106472 C12.1796911,10.0296474 12.7306486,9.47755093 13.4103755,9.47741875 L15.4636664,9.47741875 C16.1433932,9.47755093 16.6943507,10.0296474 16.6943507,10.7106472 L16.6943507,19.6391067 C16.6943507,19.6391067 17.2080318,19.4308557 17.7080944,19.2192536 C18.087977,19.0582845 18.3349418,18.6853055 18.3352632,18.272071 L18.3352632,7.62805474 C18.3352632,6.94718711 18.8861138,6.39519779 19.5657087,6.39506561 L21.6168493,6.39506561 C22.2960709,6.39572615 22.8463393,6.94756077 22.846339,7.62805474 L22.846339,16.3930252 C24.6246313,15.1018694 26.4268158,13.5488441 27.8569996,11.6815274 C28.2784542,11.1309856 28.3965127,10.4054893 28.1714202,9.7493418 C26.3658286,4.54496733 21.7746441,0.813603713 16.3192941,0.116840189 C10.8639441,-0.579923335 5.48520053,1.8780697 2.43408709,6.46214027 C-0.617026346,11.0462108 -0.814346882,16.9658386 1.92470484,21.7436379 C2.28192362,22.3606139 2.96355601,22.7143899 3.67265414,22.650846 C4.06066256,22.6166162 4.54376172,22.5682637 5.11812888,22.5007617 C5.63562114,22.4417699 6.02667906,22.0033354 6.02722498,21.481529 L6.02722498,13.7839044" id="Path_1"></path>
                        <path d="M5.98254667,26.221751 C10.3910513,29.4348849 16.2264373,29.8974508 21.0844345,27.4188643 C25.9424316,24.9402778 29.0010147,19.9399423 29,14.4780741 C29,14.1429577 28.9844699,13.8131074 28.9622502,13.4842145 C23.6670342,21.396553 13.8898908,25.0955204 5.98254667,26.221751" id="Path_2"></path>
                    </g>
                    <g id="words" transform="translate(33.000000, 3.000000)">
                        <path d="M3.47515823,21.0612836 L1.4347645,21.0612836 L1.07427091,22.0891105 L0,22.0891105 L1.87456668,17.0368345 L3.03535605,17.0368345 L4.90271286,22.0891105 L3.82844196,22.0891105 L3.47515823,21.0612836 Z M3.2011831,20.2867943 L2.45135643,18.1298054 L1.70152976,20.2867943 L3.2011831,20.2867943 Z M10.12987,18.0284703 C10.4496118,18.0239098 10.7642604,18.1091487 11.0383138,18.2745697 C11.313437,18.4452812 11.532748,18.6931333 11.6691776,18.9875342 C11.8274361,19.3308117 11.905133,19.7059659 11.8962886,20.0841242 C11.905133,20.4622825 11.8274361,20.8374366 11.6691776,21.1807142 C11.532748,21.475115 11.313437,21.7229671 11.0383138,21.8936786 C10.7642604,22.0590996 10.4496118,22.1443386 10.12987,22.139778 C9.8246726,22.1484201 9.52410861,22.0634094 9.26829027,21.8960914 C9.03482693,21.7401393 8.85681604,21.5136879 8.7599943,21.2494772 L8.7599943,24 L7.74340237,24 L7.74340237,18.0791378 L8.7599943,18.0791378 L8.7599943,18.9115329 C8.85602181,18.6475155 9.03426899,18.4216095 9.26829027,18.2673315 C9.52508229,18.1026747 9.82530268,18.0194427 10.12987,18.0284703 Z M9.8126356,18.9187711 C9.52615353,18.9097383 9.24944145,19.0238425 9.05199411,19.2324272 C8.84380535,19.4653201 8.7361917,19.7716411 8.75278443,20.0841242 C8.73701329,20.3943094 8.84464459,20.6980769 9.05199411,20.9285829 C9.24944145,21.1371676 9.52615353,21.2512719 9.8126356,21.242239 C10.0995608,21.2545981 10.3779352,21.1425469 10.576882,20.9346148 C10.7798586,20.6997496 10.8833537,20.3945375 10.8652769,20.0841242 C10.8828998,19.7726761 10.7795193,19.4665046 10.576882,19.2300145 C10.3790292,19.020083 10.1002539,18.9065503 9.8126356,18.9187711 Z M13.9943613,18.8463889 C14.136678,18.5974623 14.3402393,18.3893624 14.5855708,18.2419977 C14.834094,18.093888 15.1185066,18.017496 15.4074962,18.0212321 L15.4074962,19.114203 L15.1118914,19.114203 C14.3668713,19.114203 13.9943613,19.4616374 13.9943613,20.1565064 L13.9943613,22.0891105 L12.9777693,22.0891105 L12.9777693,18.0791378 L13.9943613,18.0791378 L13.9943613,18.8463889 Z M18.1760869,18.0284703 C18.5406114,18.0225773 18.9009486,18.1071108 19.2251233,18.2745697 C19.5326156,18.4361576 19.78682,18.6838184 19.9569253,18.9875342 C20.1408312,19.3229668 20.2328791,19.7013478 20.2236906,20.0841242 C20.2331977,20.4657848 20.1411095,20.8430818 19.9569253,21.1770951 C19.7854347,21.4797369 19.5315879,21.7270494 19.2251233,21.8900595 C18.9016519,22.0598027 18.5410351,22.145646 18.1760869,22.139778 C17.8111388,22.145646 17.450522,22.0598027 17.1270506,21.8900595 C16.820586,21.7270494 16.5667392,21.4797369 16.3952486,21.1770951 C16.2110644,20.8430818 16.1189762,20.4657848 16.1284833,20.0841242 C16.1192948,19.7013478 16.2113427,19.3229668 16.3952486,18.9875342 C16.5653539,18.6838184 16.8195583,18.4361576 17.1270506,18.2745697 C17.4512253,18.1071108 17.8115625,18.0225773 18.1760869,18.0284703 L18.1760869,18.0284703 Z M18.1760869,18.9115329 C17.9045771,18.906495 17.6432753,19.0153616 17.4550998,19.2119189 C17.2439065,19.451012 17.1373772,19.7653351 17.159495,20.0841242 C17.1377058,20.4025055 17.2442137,20.7163306 17.4550998,20.955123 C17.6432753,21.1516804 17.9045771,21.260547 18.1760869,21.2555091 C18.4475968,21.260547 18.7088986,21.1516804 18.8970741,20.955123 C19.1079602,20.7163306 19.2144681,20.4025055 19.1926789,20.0841242 C19.2147967,19.7653351 19.1082674,19.451012 18.8970741,19.2119189 C18.7088986,19.0153616 18.4475968,18.906495 18.1760869,18.9115329 Z M22.8697135,18.0284703 C23.1742808,18.0194427 23.4745012,18.1026747 23.7312932,18.2673315 C23.9660452,18.422615 24.1463487,18.6479311 24.2467991,18.9115329 L24.2467991,16.7328293 L25.2561811,16.7328293 L25.2561811,22.0891105 L24.2467991,22.0891105 L24.2467991,21.2494772 C24.1452811,21.5134543 23.9647639,21.7393559 23.7300916,21.8960914 C23.474613,22.0631729 23.1745043,22.1481733 22.8697135,22.139778 C22.5499717,22.1443386 22.2353231,22.0590996 21.9612697,21.8936786 C21.6861465,21.7229671 21.4668355,21.475115 21.3304059,21.1807142 C21.1721474,20.8374366 21.0944505,20.4622825 21.1032949,20.0841242 C21.0944505,19.7059659 21.1721474,19.3308117 21.3304059,18.9875342 C21.4668355,18.6931333 21.6861465,18.4452812 21.9612697,18.2745697 C22.2353231,18.1091487 22.5499717,18.0239098 22.8697135,18.0284703 Z M23.1869479,18.9187711 C22.8993296,18.9065503 22.6205543,19.020083 22.4227015,19.2300145 C22.2200642,19.4665046 22.1166837,19.7726761 22.1343066,20.0841242 C22.1162298,20.3945375 22.2197249,20.6997496 22.4227015,20.9346148 C22.6216482,21.1425469 22.9000227,21.2545981 23.1869479,21.242239 C23.4732001,21.2506133 23.7494348,21.1360869 23.9463877,20.9273765 C24.1537372,20.6968706 24.2613685,20.393103 24.2455974,20.0829178 C24.2615449,19.7712549 24.1539741,19.4659233 23.9463877,19.2336336 C23.7494348,19.0249233 23.4732001,18.9103969 23.1869479,18.9187711 L23.1869479,18.9187711 Z M30.3607704,18.0791378 L30.3607704,22.0891105 L29.3441785,22.0891105 L29.3441785,21.2784301 C29.2441692,21.5415751 29.0604215,21.7642114 28.8214627,21.9117742 C28.5684775,22.0667588 28.2766169,22.1458709 27.980311,22.139778 C27.5636183,22.1585139 27.159936,21.9916383 26.8772006,21.6837703 C26.584912,21.3264508 26.4380976,20.8713467 26.4662379,20.409844 L26.4662379,18.0791378 L27.47562,18.0791378 L27.47562,20.2940325 C27.458878,20.5638335 27.5467163,20.8296812 27.7207556,21.0359498 C27.8932903,21.2164561 28.1351542,21.3132301 28.3840639,21.3013511 C28.6469683,21.3137567 28.9022414,21.2107176 29.0834214,21.0190606 C29.2698023,20.7919796 29.362659,20.5019562 29.3429768,20.2083802 L29.3429768,18.0803442 L30.3607704,18.0791378 Z M33.4393857,18.0284703 C33.9042106,18.0120468 34.3599175,18.1607018 34.7263478,18.448287 C35.0748187,18.7363512 35.3046931,19.1437584 35.3716313,19.5919254 L34.2973604,19.5919254 C34.2625624,19.3939072 34.1575627,19.2152201 34.0017557,19.0888692 C33.834255,18.961303 33.6278399,18.896065 33.4177561,18.9042947 C33.1598313,18.8992835 32.9129574,19.0092893 32.743633,19.2046807 C32.5472405,19.4536264 32.450788,19.7673612 32.4732628,20.0841242 C32.4504494,20.4007309 32.546468,20.7144488 32.7424314,20.9635676 C32.9120272,21.1592865 33.1594142,21.2693248 33.4177561,21.2639537 C33.6278399,21.2721833 33.834255,21.2069453 34.0017557,21.0793791 C34.1575627,20.9530282 34.2625624,20.7743412 34.2973604,20.576323 L35.3716313,20.576323 C35.3046931,21.02449 35.0748187,21.4318972 34.7263478,21.7199614 C34.3599175,22.0075465 33.9042106,22.1562015 33.4393857,22.139778 C33.0777891,22.1465397 32.7204506,22.0605908 32.4011641,21.8900595 C32.1014129,21.726682 31.8558068,21.4788523 31.6945967,21.1770951 C31.5196487,20.8401019 31.4328193,20.4640224 31.4422512,20.0841242 C31.4331294,19.7031018 31.5199239,19.3259289 31.6945967,18.9875342 C31.8544264,18.684753 32.100386,18.4365667 32.4011641,18.2745697 C32.7211708,18.1063351 33.0782203,18.0217003 33.4393857,18.0284703 Z M38.5872342,21.2132862 L38.5872342,22.0891105 L38.0537037,22.0891105 C37.6825885,22.114374 37.3156543,21.9980445 37.0262969,21.7633907 C36.7883711,21.5462442 36.6694083,21.1843333 36.6694083,20.677658 L36.6694083,18.9404858 L36.1142481,18.9404858 L36.1142481,18.0791378 L36.6694083,18.0791378 L36.6694083,17.087502 L37.6860002,17.087502 L37.6860002,18.0791378 L38.5800243,18.0791378 L38.5800243,18.9404858 L37.6860002,18.9404858 L37.6860002,20.6921345 C37.670931,20.8371284 37.7122629,20.982359 37.8013581,21.0974747 C37.9111141,21.1855968 38.0508332,21.2271578 38.1906912,21.2132862 L38.5872342,21.2132862 Z M43.4538977,18.0284703 C43.8184221,18.0225773 44.1787593,18.1071108 44.502934,18.2745697 C44.8104263,18.4361576 45.0646307,18.6838184 45.234736,18.9875342 C45.4186419,19.3229668 45.5106899,19.7013478 45.5015013,20.0841242 C45.5110084,20.4657848 45.4189202,20.8430818 45.234736,21.1770951 C45.0632454,21.4797369 44.8093986,21.7270494 44.502934,21.8900595 C44.1794626,22.0598027 43.8188458,22.145646 43.4538977,22.139778 C43.0885443,22.1458479 42.7274899,22.0599988 42.4036597,21.8900595 C42.0976382,21.7268649 41.8442256,21.4795694 41.6730593,21.1770951 C41.4888751,20.8430818 41.3967869,20.4657848 41.4062941,20.0841242 C41.3971055,19.7013478 41.4891535,19.3229668 41.6730593,18.9875342 C41.8428421,18.6839888 42.096611,18.4363456 42.4036597,18.2745697 C42.7281943,18.1069171 43.0889681,18.022378 43.4538977,18.0284703 L43.4538977,18.0284703 Z M43.4538977,18.9115329 C43.1823878,18.906495 42.921086,19.0153616 42.7329105,19.2119189 C42.5217172,19.451012 42.4151879,19.7653351 42.4373057,20.0841242 C42.4155166,20.4025055 42.5220244,20.7163306 42.7329105,20.955123 C42.921086,21.1516804 43.1823878,21.260547 43.4538977,21.2555091 C43.7254075,21.260547 43.9867094,21.1516804 44.1748849,20.955123 C44.385771,20.7163306 44.4922788,20.4025055 44.4704896,20.0841242 C44.4926075,19.7653351 44.3860782,19.451012 44.1748849,19.2119189 C43.9867094,19.0153616 43.7254075,18.906495 43.4538977,18.9115329 L43.4538977,18.9115329 Z M48.5584869,17.3842689 C48.3405026,17.345883 48.1161442,17.3924845 47.9312281,17.5145569 C47.7946344,17.6659785 47.7290401,17.8688032 47.7509813,18.0718996 L47.7509813,18.0791378 L48.5584869,18.0791378 L48.5584869,18.9404858 L47.7509813,18.9404858 L47.7509813,22.0891105 L46.7343894,22.0891105 L46.7343894,18.9404858 L46.2224885,18.9404858 L46.2224885,18.0791378 L46.7343894,18.0791378 L46.7343894,17.985041 C46.7083089,17.5757815 46.8563538,17.1746202 47.1417471,16.8812128 C47.4792647,16.6001934 47.9121134,16.4613966 48.3494007,16.4939682 C48.4407257,16.4939682 48.5104211,16.4963809 48.5584869,16.5012064 L48.5584869,17.3842689 Z M52.6536942,17.9560881 L52.6536942,19.0273444 L54.3768535,19.0273444 L54.3768535,19.9610745 L52.6536942,19.9610745 L52.6536942,21.0974747 L54.5931497,21.0974747 L54.5931497,22.0891105 L51.4208061,22.0891105 L51.4208061,16.9716905 L54.5931497,16.9716905 L54.5931497,17.9560881 L52.6536942,17.9560881 Z M57.9313204,21.0250925 L57.9313204,22.0891105 L57.3761602,22.0891105 C56.978894,22.1136921 56.5867961,21.9885018 56.2766548,21.7380569 C56.0146961,21.5040212 55.8837168,21.1167766 55.8837168,20.576323 L55.8837168,19.0924883 L55.3429764,19.0924883 L55.3429764,18.050185 L55.8837168,18.050185 L55.8837168,17.0585491 L57.1166048,17.0585491 L57.1166048,18.050185 L57.9241105,18.050185 L57.9241105,19.0924883 L57.1166048,19.0924883 L57.1166048,20.5980376 C57.1034738,20.717424 57.1380455,20.837165 57.2127365,20.9309957 C57.3062735,21.0029311 57.4235126,21.0365597 57.5407856,21.0250925 L57.9313204,21.0250925 Z M61.5362563,18.0067557 C61.953406,17.9878513 62.3569867,18.1578887 62.6357617,18.4700016 C62.9248625,18.8289416 63.0705074,19.283076 63.0443212,19.7439279 L63.0443212,22.0891105 L61.8114331,22.0891105 L61.8114331,19.8886923 C61.8251559,19.6578585 61.748878,19.4307209 61.5987418,19.2553482 C61.4515892,19.1010726 61.245327,19.0179796 61.0327669,19.0273444 C60.8093599,19.0165169 60.5922919,19.1036854 60.4379525,19.2662056 C60.2805474,19.4563525 60.2018351,19.699895 60.2180514,19.946598 L60.2180514,22.0891105 L58.9851633,22.0891105 L58.9851633,16.7328293 L60.2180514,16.7328293 L60.2180514,18.7884832 C60.3299743,18.5510222 60.5093255,18.3520788 60.7335572,18.216664 C60.9764037,18.0729474 61.2544313,18.0002423 61.5362563,18.0067557 L61.5362563,18.0067557 Z M68.0395607,19.9610745 C68.0384432,20.0729784 68.0263686,20.1845009 68.0035113,20.2940325 L65.2132909,20.2940325 C65.2036472,20.5340133 65.2862474,20.7685354 65.4440068,20.9490912 C65.5886005,21.083716 65.780462,21.1552962 65.9775374,21.1481422 C66.139982,21.154415 66.2998558,21.1060095 66.4317593,21.0106161 C66.5490917,20.9231447 66.6330562,20.7979798 66.669685,20.6559434 L67.9746719,20.6559434 C67.9241435,20.9353501 67.8052192,21.1977634 67.628598,21.4195754 C67.4472059,21.6467443 67.215014,21.8277725 66.9508701,21.9479653 C66.6635087,22.0791347 66.3508604,22.1450407 66.0352163,22.1409844 C65.6701476,22.1479726 65.3092582,22.0620644 64.98618,21.8912659 C64.6823025,21.7258942 64.433013,21.4752054 64.2687977,21.1698568 C64.0897692,20.8315202 64.00039,20.4526575 64.0092423,20.0696477 C63.9995636,19.6858296 64.0876629,19.3058866 64.2651928,18.9658195 C64.4290186,18.6614019 64.6785281,18.4121702 64.982575,18.249236 C65.3070359,18.07867 65.669026,17.9927949 66.0352163,17.9995175 C66.4011,17.9916483 66.7630803,18.0762765 67.0878576,18.2456169 C67.3838247,18.4029498 67.6280036,18.6430602 67.7908201,18.9368667 C67.9609219,19.2507904 68.0466492,19.603779 68.0395607,19.9610745 L68.0395607,19.9610745 Z M66.7922529,19.7728808 C66.8136271,19.5519445 66.7356319,19.3329648 66.5795617,19.1757278 C66.4301357,19.0419492 66.2353406,18.9707184 66.0352163,18.9766769 C65.8288431,18.9695614 65.6275959,19.042088 65.4728463,19.179347 C65.3141525,19.3361066 65.2234722,19.549393 65.2205008,19.7728808 L66.7922529,19.7728808 Z M70.274621,18.8101978 C70.4229382,18.5695035 70.6270028,18.3683615 70.8694354,18.2239022 C71.1078328,18.0803278 71.3809174,18.005216 71.6589164,18.0067325 L71.6589164,19.3313495 L71.3056327,19.3313495 C71.0359151,19.3147057 70.7683385,19.3885467 70.5449912,19.5412578 C70.3480626,19.7213816 70.2477691,19.9845125 70.274621,20.2506032 L70.274621,22.0891105 L69.0417329,22.0891105 L69.0417329,18.050185 L70.274621,18.050185 L70.274621,18.8101978 Z M74.0021247,17.9995175 C74.4420262,17.9769209 74.8754771,18.1129871 75.224198,18.383143 C75.5304904,18.6406826 75.7340002,19.0004735 75.7973828,19.3964935 L74.6438033,19.3964935 C74.6167674,19.2439714 74.5356708,19.1064221 74.4154907,19.0092488 C74.2884263,18.9120755 74.1317065,18.8621885 73.9720836,18.8681036 C73.8590557,18.8601137 73.746811,18.8921268 73.6548492,18.9585813 C73.5810338,19.0227437 73.5410778,19.117678 73.5467012,19.215538 C73.547189,19.3420975 73.6263937,19.4548658 73.7449726,19.4978285 C73.9462365,19.5820235 74.1556362,19.6450904 74.3698282,19.6860222 C74.6265875,19.7433963 74.8794451,19.8171342 75.1268647,19.9067878 C75.3257157,19.9828875 75.5019157,20.1087057 75.6387656,20.2723178 C75.7909801,20.4651099 75.8678889,20.7070383 75.8550618,20.9527103 C75.8586832,21.1724958 75.7930784,21.3878164 75.6676051,21.5679588 C75.5303288,21.7562221 75.3428907,21.9017441 75.1268647,21.9877755 C74.8612161,22.0947912 74.5766789,22.1465047 74.2905196,22.139778 C73.8280834,22.1630983 73.3704719,22.0361893 72.9855328,21.7778671 C72.6540855,21.5289605 72.4379943,21.1551951 72.3871134,20.742802 L73.5767423,20.742802 C73.587696,20.9016496 73.6682315,21.0474484 73.7966434,21.140904 C73.9426358,21.2380348 74.1155489,21.2861847 74.2905196,21.2784301 C74.404694,21.2866412 74.5178133,21.2517977 74.607754,21.1807142 C74.6799673,21.1153949 74.7195824,21.0212706 74.715902,20.9237574 C74.72088,20.791285 74.6410895,20.6704005 74.5176306,20.6233714 C74.3089276,20.5391852 74.092912,20.4745699 73.872347,20.4303523 C73.6225672,20.3811002 73.3767603,20.3133585 73.1369401,20.2276822 C72.9441367,20.1549226 72.7729406,20.034116 72.6394589,19.8766286 C72.4913621,19.6889992 72.4169675,19.4533488 72.4303727,19.2143317 C72.4210436,18.8724174 72.573463,18.5462461 72.8413354,18.3348882 C73.1778978,18.091504 73.5881831,17.9729659 74.0021247,17.9995175 Z M78.7173809,17.9995175 C79.1894055,17.9837288 79.6517422,18.1363099 80.0223677,18.4301914 C80.3804266,18.7297662 80.6164639,19.1508947 80.6856759,19.61364 L79.3806891,19.61364 C79.3510301,19.4547535 79.2668421,19.3113274 79.1427634,19.2082998 C79.012717,19.1085125 78.8521062,19.0573245 78.6885414,19.0635355 C78.4802371,19.0597018 78.2823957,19.1549854 78.1550109,19.3204922 C78.0017628,19.5382747 77.9279248,19.80241 77.9459246,20.0684414 C77.927644,20.3348776 78.0014951,20.5994861 78.1550109,20.8175969 C78.282146,20.9835571 78.4800269,21.0793071 78.6885414,21.07576 C78.8521062,21.0819709 79.012717,21.0307829 79.1427634,20.9309957 C79.2668421,20.8279681 79.3510301,20.684542 79.3806891,20.5256555 L80.6856759,20.5256555 C80.6161848,20.9879667 80.3801723,21.4086219 80.0223677,21.7078977 C79.651907,22.0022112 79.1895543,22.155225 78.7173809,22.139778 C78.3523122,22.1467662 77.9914228,22.0608581 77.6683446,21.8900595 C77.3646359,21.7250114 77.1153641,21.4747596 76.9509623,21.1698568 C76.7719338,20.8315202 76.6825545,20.4526575 76.6914069,20.0696477 C76.6817282,19.6858296 76.7698275,19.3058866 76.9473574,18.9658195 C77.1111832,18.6614019 77.3606926,18.4121702 77.6647396,18.249236 C77.9892005,18.07867 78.3511906,17.9927949 78.7173809,17.9995175 Z M83.216341,17.9995175 C83.4952742,17.9917671 83.7705538,18.0646262 84.0094269,18.2094258 C84.2271139,18.3453757 84.3981864,18.5449029 84.4996981,18.781245 L84.4996981,18.050185 L85.7253764,18.050185 L85.7253764,22.0891105 L84.4996981,22.0891105 L84.4996981,21.3580505 C84.3981864,21.5943925 84.2271139,21.7939198 84.0094269,21.9298697 C83.7705538,22.0746693 83.4952742,22.1475284 83.216341,22.139778 C82.9017443,22.1445895 82.5924881,22.0578585 82.3259218,21.8900595 C82.0554478,21.7138148 81.8404168,21.4640507 81.7058728,21.1698568 C81.5478629,20.8252154 81.4701915,20.4489464 81.4787618,20.0696477 C81.4694357,19.6891148 81.5471294,19.3115 81.7058728,18.9658195 C81.8411964,18.6730923 82.0561314,18.4246943 82.3259218,18.249236 C82.5924881,18.081437 82.9017443,17.994706 83.216341,17.9995175 Z M83.6128839,19.0852501 C83.37265,19.0752954 83.1399071,19.1703427 82.9748103,19.345826 C82.8041581,19.5467015 82.7175983,19.8061051 82.7332795,20.0696477 C82.7175983,20.3331904 82.8041581,20.592594 82.9748103,20.7934695 C83.1399071,20.9689528 83.37265,21.0640001 83.6128839,21.0540454 C83.8541719,21.0617585 84.0869376,20.9640615 84.2509576,20.7862313 C84.4236121,20.5889764 84.5128462,20.3319066 84.4996981,20.0696477 C84.5141121,19.8061156 84.4247766,19.5474539 84.2509576,19.3494451 C84.0858688,19.1735596 83.8534792,19.0773385 83.6128839,19.0852501 L83.6128839,19.0852501 Z M89.4889295,18.0067557 C89.9060792,17.9878513 90.3096599,18.1578887 90.5884349,18.4700016 C90.8775357,18.8289416 91.0231806,19.283076 90.9969943,19.7439279 L90.9969943,22.0891105 L89.7641062,22.0891105 L89.7641062,19.8886923 C89.7778291,19.6578585 89.7015512,19.4307209 89.551415,19.2553482 C89.4042624,19.1010726 89.1980002,19.0179796 88.9854401,19.0273444 C88.7620331,19.0165169 88.5449651,19.1036854 88.3906257,19.2662056 C88.2332206,19.4563525 88.1545083,19.699895 88.1707246,19.946598 L88.1707246,22.0891105 L86.9366348,22.0891105 L86.9366348,18.050185 L88.1695229,18.050185 L88.1695229,18.7884832 C88.2814458,18.5510222 88.460797,18.3520788 88.6850288,18.216664 C88.9282243,18.0727293 89.2066986,18.0000162 89.4889295,18.0067557 L89.4889295,18.0067557 Z" id="Path_124" opacity="0.8"></path>
                        <path d="M7.44875894,6.11484639 C8.14610509,6.24105373 8.77533357,6.61391217 9.22238742,7.16583561 C9.66528289,7.71226823 9.90127716,8.3984192 9.88857958,9.10278269 C9.9323401,10.0310987 9.5535447,10.9290818 8.85900988,11.5435097 C8.17263008,12.1399389 7.17766776,12.4381535 5.87412293,12.4381535 L0.631104116,12.4381535 L0.631104116,0.173717227 L5.77030078,0.173717227 C7.00398996,0.173717227 7.9528091,0.445874216 8.61675818,0.990188194 C9.28070727,1.53450217 9.61236138,2.29853627 9.6117205,3.28229049 C9.64034,3.95891625 9.42878692,4.62377307 9.01474311,5.15843654 C8.6156553,5.64603193 8.06355363,5.98322274 7.44875894,6.11484639 Z M3.07092475,5.31574714 L5.26753238,5.31574714 C5.76582618,5.35120728 6.26029985,5.20639025 6.66144094,4.90751166 C6.98971407,4.60983761 7.16489734,4.17815178 7.13729248,3.73492038 C7.16422918,3.29073022 6.9930308,2.85751513 6.67009278,2.55267814 C6.35862632,2.27473058 5.87989083,2.1357568 5.23388631,2.1357568 L3.07092475,2.1357568 L3.07092475,5.31574714 Z M5.38961954,10.4404053 C5.91974439,10.475437 6.44559069,10.325043 6.87773709,10.0147981 C7.23527033,9.70544572 7.4274678,9.24557415 7.39684787,8.77271996 C7.42444649,8.29334636 7.22917578,7.82820064 6.86812393,7.51327007 C6.43697538,7.192768 5.90673292,7.03583919 5.37135453,7.07029114 L3.07092475,7.07029114 L3.07092475,10.4404053 L5.38961954,10.4404053 Z M14.9066504,2.69261702 C16.0717657,2.69261702 17.0061651,2.9879363 17.7098486,3.57857488 C18.4195441,4.17955048 18.8870177,5.01937098 19.0249292,5.94112916 L16.7418031,5.94112916 C16.6675104,5.50970613 16.4475409,5.11711176 16.1188702,4.82933891 C15.7627805,4.53993649 15.3133787,4.39160707 14.8557006,4.41241756 C14.5075352,4.39065178 14.1632059,4.49548726 13.8857325,4.70773685 C13.6540962,4.90649276 13.5264595,5.20121144 13.5396587,5.50683609 C13.5305035,5.75207174 13.6322645,5.98831909 13.8165178,6.14958983 C14.0195502,6.3220295 14.2548797,6.45196956 14.5086655,6.53176773 C14.7855245,6.62441692 15.1835095,6.73443783 15.7026202,6.86183046 C16.3057986,6.98773983 16.8986825,7.15904557 17.4762487,7.37429628 C17.9335738,7.55459451 18.3384894,7.84727994 18.6538611,8.2255107 C19.0022114,8.67244281 19.1774143,9.23097627 19.1470164,9.7976516 C19.1659798,10.5801832 18.8080934,11.3239204 18.1857001,11.7953997 C17.5454635,12.3043268 16.6831628,12.5587904 15.5987981,12.5587904 C14.3529322,12.5587904 13.355086,12.2782693 12.6052593,11.717227 C11.8431523,11.1347871 11.349701,10.2662847 11.2382676,9.31124336 L13.5742661,9.31124336 C13.6152912,9.75619541 13.8415044,10.1630874 14.197199,10.4317195 C14.6065447,10.7197236 15.0994772,10.8632972 15.5987981,10.839955 C15.9429994,10.8638224 16.2833245,10.7551114 16.5505012,10.5359498 C16.7697581,10.3332863 16.8898552,10.0445548 16.8792713,9.74553643 C16.8881271,9.48851239 16.7836687,9.2406402 16.5937604,9.06803925 C16.3882826,8.88570307 16.146413,8.74948665 15.884309,8.66848963 C15.601682,8.57584044 15.2011336,8.46581953 14.6826637,8.33842689 C14.0926626,8.2124263 13.5116974,8.04702725 12.9436426,7.8433328 C12.5006054,7.67619116 12.1074802,7.39812763 11.8015989,7.03554769 C11.4631934,6.60096995 11.2940337,6.05753082 11.3257474,5.50683609 C11.3053846,4.71645354 11.6582368,3.96288947 12.2774505,3.47434454 C12.9112783,2.95319286 13.7876783,2.69261702 14.9066504,2.69261702 L14.9066504,2.69261702 Z M25.2715622,2.69261702 C26.3871449,2.65317985 27.4808485,3.00995409 28.3602713,3.70017693 C29.1965305,4.39159094 29.7482123,5.36933869 29.9089517,6.44490912 L27.3297403,6.44490912 C27.2459948,5.97001899 26.9940176,5.54155037 26.6202889,5.23853949 C26.2182853,4.93238426 25.7228904,4.77581347 25.2186898,4.79556056 C24.5996703,4.7835337 24.007173,5.04754766 23.6007945,5.51648705 C23.1682022,5.99710471 22.9519061,6.70065948 22.9519061,7.62715136 C22.9519061,8.55364324 23.1682022,9.25719801 23.6007945,9.73781567 C24.007173,10.2067551 24.5996703,10.470769 25.2186898,10.4587422 C25.7228904,10.4784892 26.2182853,10.3219185 26.6202889,10.0157632 C26.9940176,9.71275235 27.2459948,9.28428373 27.3297403,8.8093936 L29.9079904,8.8093936 C29.747251,9.88496403 29.1955692,10.8627118 28.35931,11.5541258 C27.4797508,12.2430967 26.3864634,12.5988211 25.2715622,12.5587904 C24.4038133,12.5753237 23.5462038,12.3693791 22.7798305,11.9604311 C22.060436,11.5683136 21.4709844,10.9735253 21.0840686,10.2493164 C20.6642035,9.44052918 20.4558135,8.53794083 20.4784394,7.62618626 C20.4565451,6.71173224 20.6648518,5.80651682 21.0840686,4.99437028 C21.4676671,4.26770071 22.0579682,3.67205531 22.7798305,3.28325559 C23.5478435,2.87948468 24.4047644,2.67636066 25.2715622,2.69261702 L25.2715622,2.69261702 Z M40.0316118,9.08637607 C40.0362606,9.69459002 39.8746665,10.2924356 39.5644121,10.8148625 C39.2322982,11.3609717 38.7521408,11.8008378 38.1801167,12.0829982 C37.4849781,12.4194451 36.7192797,12.582655 35.9479404,12.5587904 C35.1529486,12.5724755 34.363664,12.4216853 33.6292456,12.1158115 C32.9803584,11.8449406 32.4159217,11.403949 31.995008,10.8389899 C31.5810467,10.2709835 31.3378515,9.59579951 31.2942085,8.89335692 L33.8897623,8.89335692 C33.935008,9.36556078 34.1467094,9.8060292 34.4867397,10.1354351 C34.8552731,10.4763193 35.3445467,10.654652 35.8450796,10.6305292 C36.2734785,10.6593311 36.6951199,10.5119604 37.0130788,10.2222937 C37.2869327,9.94308289 37.4340327,9.56288957 37.4197156,9.17130449 C37.432536,8.82545283 37.3151572,8.48743728 37.0909454,8.2245456 C36.8602166,7.96715545 36.5769202,7.76273563 36.2603682,7.62522117 C35.9258301,7.47466624 35.4643983,7.30094901 34.8760728,7.10406949 C34.2354906,6.89862214 33.6108652,6.64604777 33.007274,6.34839955 C32.5138834,6.09166413 32.0894719,5.71921644 31.77006,5.26266688 C31.4082879,4.71326663 31.2295533,4.06276406 31.2596011,3.40485765 C31.2189333,2.43983257 31.6401366,1.51341559 32.3929929,0.912015442 C33.1485875,0.304005147 34.1493177,0 35.3951836,0 C36.6871926,0 37.7167623,0.312691009 38.4838927,0.938073026 C39.2455507,1.55384394 39.7183454,2.45946062 39.7893601,3.438636 L37.1591989,3.438636 C37.1032971,3.02414816 36.9083218,2.64117482 36.606442,2.35290333 C36.2681622,2.05512416 35.8270947,1.90232643 35.3778799,1.92729612 C34.9834167,1.90867078 34.5957567,2.03531006 34.2877473,2.28341644 C33.9992308,2.54659464 33.8459865,2.92748092 33.8714973,3.31799903 C33.8603933,3.64632668 33.9749422,3.96645974 34.1916156,4.21264275 C34.4198916,4.4607872 34.6967689,4.65891181 35.0048892,4.79459546 C35.4426016,4.98648776 35.8902575,5.15465628 36.3459253,5.29837542 C36.9977828,5.52165646 37.6362054,5.78266974 38.2579834,6.08010294 C38.7606269,6.33401467 39.1919213,6.71026815 39.5125011,7.17452147 C39.8812666,7.74052995 40.0629121,8.40884421 40.0316118,9.08444587 L40.0316118,9.08637607 Z M46.1398153,2.69261702 C47.255398,2.65317985 48.3491016,3.00995409 49.2285244,3.70017693 C50.0647836,4.39159094 50.6164654,5.36933869 50.7772048,6.44490912 L48.1989547,6.44490912 C48.1152092,5.97001899 47.863232,5.54155037 47.4895033,5.23853949 C47.0874997,4.93238426 46.5921049,4.77581347 46.0879042,4.79556056 C45.4688847,4.7835337 44.8763875,5.04754766 44.4700089,5.51648705 C44.0374166,5.99710471 43.8211205,6.70065948 43.8211205,7.62715136 C43.8211205,8.55364324 44.0374166,9.25719801 44.4700089,9.73781567 C44.8763875,10.2067551 45.4688847,10.470769 46.0879042,10.4587422 C46.5921049,10.4784892 47.0874997,10.3219185 47.4895033,10.0157632 C47.863232,9.71275235 48.1152092,9.28428373 48.1989547,8.8093936 L50.7772048,8.8093936 C50.6160152,9.884269 50.0643738,10.8612576 49.2285244,11.5521956 C48.3489707,12.2420733 47.2552797,12.5985017 46.1398153,12.5587904 C45.2720664,12.5753237 44.4144569,12.3693791 43.6480836,11.9604311 C42.9286891,11.5683136 42.3392375,10.9735253 41.9523217,10.2493164 C41.5324566,9.44052918 41.3240666,8.53794083 41.3466925,7.62618626 C41.3247982,6.71173224 41.5331049,5.80651682 41.9523217,4.99437028 C42.3359202,4.26770071 42.9262213,3.67205531 43.6480836,3.28325559 C44.4160966,2.87948468 45.2730175,2.67636066 46.1398153,2.69261702 Z M56.2624754,2.69261702 C56.9960483,2.67181043 57.7190949,2.87143001 58.3389184,3.26588387 C58.9045111,3.63396399 59.3356744,4.17656113 59.5674806,4.81196719 L59.5674806,2.81421908 L61.9899976,2.81421908 L61.9899976,12.4381535 L59.5674806,12.4381535 L59.5674806,10.4230336 C59.3343714,11.059999 58.9037174,11.6050001 58.3389184,11.9778028 C57.7209919,12.3773081 56.9971526,12.579838 56.2624754,12.5587904 C55.4950955,12.5697306 54.7399404,12.3651575 54.0822101,11.9681518 C53.4219107,11.5584486 52.8955633,10.9636023 52.568137,10.2570372 C52.1883068,9.43317433 52.0018338,8.53280202 52.0230707,7.62522117 C52.0018338,6.71764031 52.1883068,5.817268 52.568137,4.99340518 C52.8955633,4.28683999 53.4219107,3.69199372 54.0822101,3.28229049 C54.7400396,2.88562288 55.4951881,2.68138576 56.2624754,2.69261702 Z M57.0238378,4.82933891 C56.3334114,4.80029576 55.6643427,5.07312953 55.1896464,5.57728808 C54.7282146,6.07592086 54.4974987,6.75953032 54.4974987,7.62811645 C54.4974987,8.49670259 54.7282146,9.17709506 55.1896464,9.66929387 C55.6671222,10.1683257 56.3352185,10.4372476 57.0238378,10.4075921 C57.7121684,10.428801 58.3767499,10.1538467 58.8503387,9.65192215 C59.3472587,9.09943303 59.6055226,8.37157688 59.5684419,7.62811645 C59.6074895,6.87914115 59.3492683,6.14515834 58.8503387,5.58693904 C58.3770906,5.08430353 57.7124638,4.80862811 57.0238378,4.82933891 L57.0238378,4.82933891 Z M69.9150887,2.6752453 C70.9151512,2.63027914 71.8839887,3.03078064 72.5625536,3.76966382 C73.2194531,4.49927618 73.5479028,5.52420782 73.5479028,6.84445874 L73.5479028,12.4381535 L71.1253859,12.4381535 L71.1253859,7.12240631 C71.1253859,6.35805051 70.9292773,5.76451665 70.5370603,5.34180473 C70.1166444,4.90703219 69.5295919,4.67586214 68.9268556,4.70773685 C68.3013285,4.68019616 67.6948726,4.92753748 67.2657011,5.38523404 C66.8504125,5.83689883 66.6427682,6.48544314 66.6427682,7.33086698 L66.6427682,12.4381535 L64.2048702,12.4381535 L64.2048702,2.81421908 L66.6446908,2.81421908 L66.6446908,4.7415152 C66.8845398,4.10986575 67.325576,3.57548803 67.8992085,3.22148946 C68.5059257,2.85023295 69.2056627,2.6607152 69.91605,2.6752453 L69.9150887,2.6752453 Z" id="Path_123"></path>
                    </g>
                </g>
            </g>
        </g>
    </g>
</svg>