<?xml version="1.0" encoding="UTF-8"?>
<svg width="31px" height="46px" viewBox="0 0 31 46" version="1.1" xmlns="http://www.w3.org/2000/svg" xmlns:xlink="http://www.w3.org/1999/xlink">
    <title>buyback</title>
    <g id="landing" stroke="none" stroke-width="1" fill="none" fill-rule="evenodd">
        <g id="Artboard" transform="translate(-584.000000, -1237.000000)" fill="#AA6D2D" fill-rule="nonzero">
            <g id="Features" transform="translate(280.000000, 1237.000000)">
                <g id="Group-7-Copy" transform="translate(242.000000, 0.000000)">
                    <g id="buyback" transform="translate(62.000000, 0.000000)">
                        <g id="Group" transform="translate(15.450382, 23.000000) scale(-1, 1) rotate(-180.000000) translate(-15.450382, -23.000000) ">
                            <path d="M15.3822428,45.8191819 C15.2768523,45.7248348 15.1714617,45.524406 15.1360207,45.3826508 C15.101046,45.2408955 15.0893877,42.4212802 15.101046,39.1294603 C15.1360207,33.3484744 15.1476789,33.1241069 15.3589263,32.9588822 C15.6872224,32.7227799 16.0975926,32.7584534 16.3671312,33.0297598 C16.5900368,33.2541274 16.601695,33.4188827 16.601695,39.4007667 C16.601695,45.3826508 16.5900368,45.5478754 16.3671312,45.7717736 C16.085468,46.0552842 15.6279985,46.0787536 15.3822428,45.8191819 Z" id="Path"></path>
                            <path d="M8.74776978,39.8729713 C8.51320593,39.636869 8.50154768,39.5190526 8.53698874,36.3807226 C8.57196347,33.325005 8.58408805,33.1245762 8.79486908,32.9593516 C9.12316521,32.7232493 9.53353536,32.7589228 9.80307395,33.0302292 C10.0259796,33.2545968 10.0376378,33.4193521 10.0376378,36.4516003 C10.0376378,39.4838485 10.0259796,39.6490731 9.80307395,39.8729713 C9.49809431,40.1794819 9.05228309,40.1794819 8.74776978,39.8729713 Z" id="Path"></path>
                            <path d="M21.9225172,39.9433796 C21.7112698,39.7781549 21.6996116,39.6011955 21.6996116,36.4511309 C21.6996116,33.3010662 21.7112698,33.1241069 21.9225172,32.9588822 C22.2508133,32.7227799 22.6607171,32.7584534 22.930722,33.0297598 C23.1536276,33.2541274 23.1652859,33.4188827 23.1652859,36.4511309 C23.1652859,39.4833791 23.1536276,39.6486037 22.930722,39.8725019 C22.6611834,40.1442777 22.2508133,40.1794819 21.9225172,39.9433796 Z" id="Path"></path>
                            <path d="M0.777262121,22.8243202 C0.777262121,18.6359687 0.800578607,15.2145976 0.836019666,15.2145976 C0.859336152,15.2145976 2.35998521,16.2528845 4.16468124,17.5150695 C7.6812737,19.9690314 7.96247052,20.1107866 8.33739962,19.544235 C8.50154768,19.2846633 8.48988944,19.0724998 8.27864208,17.2672325 C8.14946874,16.1698027 8.04407822,15.238067 8.04407822,15.1906588 C8.04407822,15.1315159 13.1895604,15.0963118 19.4724208,15.0963118 L30.9007634,15.0963118 L30.9007634,22.7651772 L30.9007634,30.4340427 L15.8392459,30.4340427 L0.777262121,30.4340427 L0.777262121,22.8243202 Z M9.91965638,25.3017514 C10.6699809,24.9126286 10.834129,23.9569541 10.2596107,23.2960554 C10.0017304,23.0130143 9.95463111,22.8829937 10.0721462,22.8829937 C10.1658785,22.8829937 10.3887841,22.717769 10.5529321,22.5173402 C11.1857416,21.7738292 10.8108125,20.5116442 9.86136516,20.1929296 C9.56851009,20.0985825 8.88860136,20.0511743 7.88039649,20.0751131 L6.34477271,20.1103172 L6.30979798,22.8003814 L6.28648149,25.4787108 L7.92749579,25.4787108 C9.18145642,25.4787108 9.66177604,25.431772 9.91965638,25.3017514 Z M15.0772631,23.520423 C15.0772631,22.4464626 15.1243624,21.4673187 15.1943119,21.3495022 C15.3701182,21.0073182 16.0500269,20.8303588 16.5424711,20.9955835 C17.0932065,21.1725429 17.1874051,21.5738698 17.1874051,23.7447906 L17.1874051,25.4791802 L17.7148241,25.4791802 L18.242243,25.4791802 L18.242243,23.4730147 C18.242243,21.1368694 18.1251942,20.6886036 17.4336272,20.2638072 C16.859109,19.8981537 15.4526586,19.886419 14.8548239,20.2286031 C14.0224253,20.7242771 13.9641341,20.8895017 13.928693,23.3077901 L13.8815937,25.4787108 L14.4794284,25.4787108 L15.0772631,25.4787108 L15.0772631,23.520423 Z M22.7432575,24.4760975 C23.0477708,23.9217499 23.3410922,23.4730147 23.3877252,23.4730147 C23.4226999,23.4730147 23.7160213,23.9212805 24.0205346,24.4760975 L24.5833946,25.4787108 L25.2278623,25.4787108 L25.8606717,25.4787108 L25.5556921,24.9830368 C25.3798857,24.6999957 24.9345409,23.9921582 24.5474872,23.3904024 L23.8685111,22.3051767 L23.8685111,21.1725429 L23.8685111,20.0516437 L23.3406259,20.0516437 L22.8132069,20.0516437 L22.8132069,21.1960123 L22.8132069,22.3403809 L21.8754179,23.8386682 C21.3596572,24.6525875 20.9376288,25.360425 20.9376288,25.4078332 C20.9376288,25.4430373 21.2188256,25.4787108 21.55878,25.4787108 L22.1682729,25.4787108 L22.7432575,24.4760975 Z" id="Shape"></path>
                            <path d="M7.45836809,24.0043623 L7.45836809,23.3551983 L8.25532559,23.3551983 C9.20477291,23.3551983 9.60348482,23.5673618 9.54472728,24.0395664 C9.49762798,24.4643628 9.08772415,24.6530568 8.19656804,24.6530568 L7.45836809,24.6530568 L7.45836809,24.0043623 Z" id="Path"></path>
                            <path d="M7.45836809,21.703421 L7.45836809,20.9955835 L8.37237435,20.9955835 C9.450995,20.9955835 9.72053358,21.1373387 9.72053358,21.703421 C9.72053358,22.2695032 9.450995,22.4112585 8.37237435,22.4112585 L7.45836809,22.4112585 L7.45836809,21.703421 Z" id="Path"></path>
                            <path d="M4.8212735,17.0311302 C3.4031648,16.0280475 2.03168908,15.0606383 1.78546699,14.8954136 L1.32846386,14.6006378 L2.27791118,14.0462902 C2.80533009,13.7515144 3.23901674,13.4562692 3.23901674,13.3975957 C3.23901674,13.3389221 2.50081678,11.9936554 1.58634419,10.4244904 C-0.195501685,7.32136457 -0.253792901,7.12093578 0.332383563,6.68440469 C0.965193,6.20046539 1.11768282,6.36569006 2.95781991,9.55142821 C3.88395075,11.1440626 4.64546719,12.4893294 4.66925,12.5362682 C4.69256649,12.5954111 5.14956962,12.3827782 5.67745487,12.0762677 C6.21653203,11.7814919 6.66187692,11.5453896 6.68565974,11.568859 C6.69731798,11.5923284 6.88478253,13.1262892 7.09602989,14.9784953 C7.29515269,16.8307014 7.49474181,18.4590093 7.52971654,18.6124993 C7.55303302,18.7542545 7.54137478,18.872071 7.49474181,18.8603363 C7.4350516,18.8598669 6.23938219,18.0342129 4.8212735,17.0311302 Z" id="Path"></path>
                            <path d="M8.74776978,12.9727993 C8.52486417,12.7489011 8.51320593,12.5836764 8.51320593,9.55142821 C8.51320593,6.51918002 8.52486417,6.35395535 8.74776978,6.13005715 C9.05274942,5.82307722 9.49809431,5.82307722 9.80260762,6.13005715 C10.0255132,6.35442474 10.0371715,6.51918002 10.0371715,9.55142821 C10.0371715,12.5836764 10.0255132,12.7489011 9.80260762,12.9727993 C9.67390061,13.1028198 9.43933676,13.2089016 9.2751887,13.2089016 C9.11104063,13.2084322 8.87647678,13.1023504 8.74776978,12.9727993 Z" id="Path"></path>
                            <path d="M15.35846,13.0436769 C15.1476789,12.8784522 15.1355543,12.6540846 15.1005796,6.87309877 C15.0889214,3.58127887 15.1005796,0.761663567 15.1355543,0.619908311 C15.2880442,0.00641784967 15.9325118,-0.205745646 16.3661985,0.23078544 C16.5891041,0.455153031 16.6007623,0.619908311 16.6007623,6.60179236 C16.6007623,12.5836764 16.5891041,12.7489011 16.3661985,12.9727993 C16.0971262,13.2441057 15.6867561,13.2793098 15.35846,13.0436769 Z" id="Path"></path>
                            <path d="M21.9225172,13.0436769 C21.7112698,12.8784522 21.6996116,12.7014929 21.6996116,9.55142821 C21.6996116,6.40136357 21.7112698,6.22440419 21.9225172,6.05917952 C22.2508133,5.82307722 22.6607171,5.85875073 22.930722,6.13005715 C23.1536276,6.35442474 23.1652859,6.51918002 23.1652859,9.55142821 C23.1652859,12.5836764 23.1536276,12.7489011 22.930722,12.9727993 C22.6611834,13.2441057 22.2508133,13.2793098 21.9225172,13.0436769 Z" id="Path"></path>
                        </g>
                    </g>
                </g>
            </g>
        </g>
    </g>
</svg>