<?xml version="1.0" encoding="UTF-8"?>
<svg width="169px" height="29px" viewBox="0 0 169 29" version="1.1" xmlns="http://www.w3.org/2000/svg" xmlns:xlink="http://www.w3.org/1999/xlink">
    <title>coinmarketcap</title>
    <g id="landing" stroke="none" stroke-width="1" fill="none" fill-rule="evenodd">
        <g id="Artboard" transform="translate(-718.000000, -790.000000)" fill="#858785" fill-rule="nonzero">
            <g id="Markets" transform="translate(291.000000, 790.000000)">
                <g id="coinmarketcap" transform="translate(427.000000, 0.000000)">
                    <path d="M24.8410853,17.3381783 C24.3352713,17.6472868 23.745155,17.7034884 23.2955426,17.4505814 C22.7335271,17.1133721 22.3963178,16.3546512 22.3963178,15.3149225 L22.3963178,12.1395349 C22.3963178,10.622093 21.8062016,9.52616279 20.7945736,9.24515504 C19.0804264,8.73934109 17.7877907,10.8468992 17.3100775,11.6337209 L14.2751938,16.495155 L14.2751938,10.5096899 C14.247093,9.13275194 13.7974806,8.31782946 12.9544574,8.06492248 C12.3924419,7.89631783 11.5494186,7.98062016 10.7344961,9.21705426 L3.9622093,20.0639535 C3.0629845,18.3498062 2.58527132,16.4389535 2.58527132,14.5 C2.58527132,7.95251938 7.84011628,2.64147287 14.2751938,2.64147287 C20.7102713,2.64147287 25.9651163,7.95251938 25.9651163,14.5 C25.9651163,14.5 25.9651163,14.5281008 25.9651163,14.5281008 C25.9651163,14.5281008 25.9651163,14.5562016 25.9651163,14.5562016 C26.0213178,15.8207364 25.627907,16.8323643 24.8410853,17.3381783 L24.8410853,17.3381783 Z M28.5503876,14.5 L28.5503876,14.5 L28.5503876,14.4718992 L28.5503876,14.4437984 C28.5222868,6.49127907 22.1153101,0 14.2751938,0 C6.40697674,0 0,6.49127907 0,14.5 C0,22.4806202 6.40697674,29 14.2751938,29 C17.9001938,29 21.3284884,27.623062 23.9699612,25.122093 C24.503876,24.6162791 24.5319767,23.8013566 24.0261628,23.2674419 C23.5484496,22.7335271 22.7335271,22.7054264 22.1996124,23.1831395 C22.1996124,23.1831395 22.1996124,23.1831395 22.1715116,23.2112403 C20.0358527,25.2344961 17.1695736,26.3866279 14.2189922,26.3866279 C10.7625969,26.3866279 7.67151163,24.869186 5.53585271,22.4525194 L11.6337209,12.6734496 L11.6337209,17.1976744 C11.6337209,19.3614341 12.4767442,20.0639535 13.1792636,20.2606589 C13.8817829,20.4573643 14.9496124,20.3168605 16.1017442,18.4903101 L19.4457364,13.0668605 C19.5581395,12.8982558 19.6424419,12.7296512 19.754845,12.6172481 L19.754845,15.371124 C19.754845,17.3943798 20.5697674,19.0242248 21.9748062,19.8110465 C23.2393411,20.5416667 24.8410853,20.4573643 26.1618217,19.6424419 C27.7916667,18.5746124 28.6627907,16.7199612 28.5503876,14.5 Z M48.4457364,9.55426357 C48.7829457,9.75096899 49.0920543,10.2286822 49.0920543,10.6501938 C49.0920543,11.3246124 48.5300388,11.8866279 47.8837209,11.8866279 C47.7151163,11.8866279 47.5746124,11.8304264 47.4341085,11.8023256 C46.6753876,11.2403101 45.7199612,10.875 44.7083333,10.875 C42.3197674,10.875 40.6899225,12.8139535 40.6899225,15.2306202 C40.6899225,17.6472868 42.3478682,19.5581395 44.7083333,19.5581395 C45.8885659,19.5581395 46.9563953,19.0804264 47.7432171,18.3217054 C47.9399225,18.1812016 48.1928295,18.0968992 48.4457364,18.0968992 C49.0920543,18.0968992 49.5978682,18.6027132 49.5978682,19.249031 C49.5978682,19.6705426 49.3449612,20.0358527 49.0358527,20.2325581 C47.8837209,21.2160853 46.3381783,21.8624031 44.7364341,21.8624031 C41.0833333,21.8624031 38.1046512,18.8556202 38.1046512,15.1463178 C38.1046512,11.4370155 41.0833333,8.43023256 44.7364341,8.43023256 C46.0852713,8.40213178 47.377907,8.82364341 48.4457364,9.55426357 Z M55.1337209,12.3643411 C57.6346899,12.3643411 59.7141473,14.4718992 59.7141473,17.0852713 C59.7141473,19.6705426 57.6065891,21.8905039 55.1337209,21.8905039 C52.5203488,21.8905039 50.3565891,19.6986434 50.3565891,17.0852713 C50.3565891,14.4718992 52.5203488,12.3643411 55.1337209,12.3643411 Z M55.1056202,19.5581395 C56.2015504,19.5581395 57.128876,18.5184109 57.128876,17.1133721 C57.128876,15.7083333 56.2015504,14.8091085 55.1056202,14.8091085 C53.9253876,14.8091085 52.9418605,15.6802326 52.9418605,17.1133721 C52.9418605,18.4903101 53.9253876,19.5581395 55.1056202,19.5581395 Z M61.2877907,20.4292636 L61.2877907,13.7974806 C61.2877907,13.0668605 61.8498062,12.4767442 62.5804264,12.4767442 C63.2829457,12.4767442 63.873062,13.0668605 63.873062,13.7974806 L63.873062,20.4292636 C63.873062,21.1598837 63.2829457,21.75 62.5804264,21.75 C61.877907,21.75 61.2877907,21.1317829 61.2877907,20.4292636 Z M61.0910853,9.97577519 C61.0910853,9.10465116 61.7655039,8.43023256 62.5804264,8.43023256 C63.4234496,8.43023256 64.0978682,9.13275194 64.0978682,9.97577519 C64.0978682,10.8187984 63.4234496,11.4932171 62.5804264,11.4932171 C61.7374031,11.4651163 61.0910853,10.7906977 61.0910853,9.97577519 Z M68.8187984,16.8323643 L68.8187984,20.4292636 C68.8187984,21.1598837 68.2286822,21.75 67.5261628,21.75 C66.8236434,21.75 66.2335271,21.1598837 66.2335271,20.4292636 L66.2335271,13.4883721 C66.2335271,12.9263566 66.6831395,12.4767442 67.245155,12.4767442 C67.8071705,12.4767442 68.2286822,12.9544574 68.2286822,13.4883721 C69.2684109,12.504845 70.1957364,12.3643411 71.0668605,12.3643411 C73.6521318,12.3643411 74.8042636,14.3032946 74.8042636,16.5232558 L74.8042636,20.4292636 C74.8042636,21.1598837 74.2141473,21.75 73.5116279,21.75 C72.8091085,21.75 72.2189922,21.1598837 72.2189922,20.4292636 L72.2189922,16.8323643 C72.2189922,15.7083333 72.0784884,14.752907 70.4486434,14.752907 C69.2965116,14.752907 68.8187984,15.7083333 68.8187984,16.8323643 L68.8187984,16.8323643 Z M83.1782946,18.2093023 C82.869186,18.2093023 82.6724806,18.0687984 82.503876,17.872093 L79.497093,14.6124031 L79.497093,20.4292636 C79.497093,21.1598837 78.9069767,21.75 78.2044574,21.75 C77.501938,21.75 76.9118217,21.1598837 76.9118217,20.4292636 L76.9118217,8.90794574 C76.996124,8.71124031 77.1928295,8.57073643 77.3895349,8.57073643 C77.6143411,8.57073643 77.8110465,8.76744186 77.9515504,8.90794574 L82.7567829,14.3032946 C82.8972868,14.4718992 83.0658915,14.5562016 83.1782946,14.5562016 C83.2625969,14.5562016 83.4593023,14.4718992 83.5998062,14.3032946 L88.4050388,8.90794574 C88.5455426,8.76744186 88.7141473,8.57073643 88.9670543,8.57073643 C89.1918605,8.57073643 89.3885659,8.71124031 89.4447674,8.90794574 L89.4447674,20.4292636 C89.4447674,21.1598837 88.8827519,21.75 88.1521318,21.75 C87.4496124,21.75 86.8594961,21.1598837 86.8594961,20.4292636 L86.8594961,14.6124031 L83.8527132,17.872093 C83.627907,18.0687984 83.4312016,18.2093023 83.1782946,18.2093023 L83.1782946,18.2093023 Z M95.5988372,19.5581395 C96.750969,19.5581395 97.7344961,18.5184109 97.7344961,17.1133721 C97.7344961,15.7083333 96.7228682,14.7810078 95.5988372,14.7810078 C94.4748062,14.7810078 93.5474806,15.7364341 93.5474806,17.1133721 C93.5474806,18.4622093 94.4467054,19.5581395 95.5988372,19.5581395 Z M98.3527132,20.7383721 L98.2965116,20.4292636 C97.7906977,21.4127907 96.1889535,21.8624031 95.1773256,21.8624031 C92.7606589,21.8624031 90.9622093,19.6705426 90.9622093,17.0571705 C90.9622093,14.4718992 92.7887597,12.3362403 95.3178295,12.3362403 C95.7393411,12.3362403 97.2005814,12.4486434 98.3246124,13.7693798 L98.380814,13.4602713 C98.380814,12.8982558 98.8023256,12.4486434 99.3643411,12.4486434 C99.9263566,12.4486434 100.375969,12.9263566 100.375969,13.4602713 L100.375969,20.7102713 C100.375969,21.2722868 99.9263566,21.7218992 99.3643411,21.7218992 C98.7742248,21.75 98.3527132,21.2722868 98.3527132,20.7383721 L98.3527132,20.7383721 Z M107.485465,14.752907 L107.204457,14.752907 C105.574612,14.8372093 105.265504,15.7645349 105.265504,16.8323643 L105.265504,20.4292636 C105.265504,21.1598837 104.675388,21.75 103.972868,21.75 C103.270349,21.75 102.680233,21.1598837 102.680233,20.4292636 L102.680233,13.4883721 C102.680233,12.9263566 103.129845,12.4767442 103.69186,12.4767442 C104.253876,12.4767442 104.675388,12.9544574 104.675388,13.4883721 C105.630814,12.5891473 106.417636,12.3924419 107.204457,12.3643411 L107.457364,12.3643411 C108.075581,12.3643411 108.637597,12.8982558 108.637597,13.5726744 C108.665698,14.1908915 108.103682,14.752907 107.485465,14.752907 L107.485465,14.752907 Z M117.46124,19.8110465 C117.573643,20.0077519 117.657946,20.2044574 117.657946,20.4292636 C117.657946,21.1036822 117.039729,21.7218992 116.36531,21.7218992 C115.915698,21.7218992 115.522287,21.3846899 115.213178,20.9912791 L112.234496,17.5348837 L112.234496,20.4011628 C112.234496,21.1317829 111.64438,21.7218992 110.94186,21.7218992 C110.239341,21.7218992 109.649225,21.1317829 109.649225,20.4011628 L109.649225,9.86337209 C109.649225,9.13275194 110.21124,8.54263566 110.94186,8.54263566 C111.672481,8.54263566 112.234496,9.13275194 112.234496,9.86337209 L112.234496,16.4389535 L115.213178,13.1511628 C115.522287,12.8139535 115.887597,12.4486434 116.337209,12.4486434 C116.983527,12.4486434 117.573643,13.0387597 117.573643,13.7131783 C117.573643,13.9098837 117.517442,14.1346899 117.405039,14.3032946 L115.044574,16.8885659 L117.46124,19.8110465 L117.46124,19.8110465 Z M122.51938,14.7810078 C121.81686,14.7810078 120.664729,15.1463178 120.664729,16.2422481 L124.402132,16.2422481 C124.374031,15.1463178 123.193798,14.7810078 122.51938,14.7810078 L122.51938,14.7810078 Z M125.891473,17.9001938 L120.664729,17.9001938 C120.664729,19.4457364 122.15407,19.6986434 122.800388,19.6986434 C123.278101,19.6986434 123.952519,19.6143411 124.486434,19.3614341 C124.655039,19.249031 124.907946,19.1647287 125.160853,19.1647287 C125.722868,19.1647287 126.200581,19.6424419 126.200581,20.2325581 C126.200581,20.625969 125.947674,20.9631783 125.638566,21.1598837 C124.851744,21.75 123.812016,21.8905039 122.828488,21.8905039 C120.215116,21.8905039 118.051357,20.4854651 118.051357,17.1976744 C118.051357,14.6124031 119.372093,12.3643411 122.463178,12.3643411 C124.964147,12.3643411 126.846899,13.994186 126.903101,16.8885659 C126.903101,17.4224806 126.453488,17.9001938 125.891473,17.9001938 L125.891473,17.9001938 Z M133.085271,21.8624031 L132.382752,21.8624031 C130.415698,21.8624031 129.263566,20.9912791 129.263566,17.9282946 L129.263566,14.752907 L128.589147,14.752907 C127.97093,14.752907 127.437016,14.1908915 127.437016,13.5726744 C127.437016,12.8982558 127.999031,12.3643411 128.589147,12.3643411 L129.263566,12.3643411 L129.263566,9.91957364 C129.263566,9.18895349 129.825581,8.59883721 130.556202,8.59883721 C131.258721,8.59883721 131.848837,9.18895349 131.848837,9.91957364 L131.848837,12.3643411 L132.916667,12.3643411 C133.534884,12.3643411 134.068798,12.8982558 134.068798,13.5726744 C134.068798,14.1908915 133.506783,14.752907 132.916667,14.752907 L131.848837,14.752907 L131.848837,17.4224806 C131.848837,19.1928295 131.93314,19.5581395 132.719961,19.5581395 L133.085271,19.5581395 C133.703488,19.5581395 134.237403,20.0639535 134.237403,20.7102713 C134.237403,21.3284884 133.703488,21.8624031 133.085271,21.8624031 L133.085271,21.8624031 Z M145.590116,9.55426357 C145.927326,9.75096899 146.236434,10.2286822 146.236434,10.6501938 C146.236434,11.3246124 145.674419,11.8866279 145.028101,11.8866279 C144.859496,11.8866279 144.718992,11.8304264 144.578488,11.8023256 C143.819767,11.2403101 142.864341,10.875 141.852713,10.875 C139.464147,10.875 137.834302,12.8139535 137.834302,15.2306202 C137.834302,17.6472868 139.492248,19.5581395 141.852713,19.5581395 C143.032946,19.5581395 144.100775,19.0804264 144.887597,18.3217054 C145.084302,18.1812016 145.337209,18.0968992 145.590116,18.0968992 C146.236434,18.0968992 146.742248,18.6027132 146.742248,19.249031 C146.742248,19.6705426 146.489341,20.0358527 146.180233,20.2325581 C145.028101,21.2160853 143.482558,21.8624031 141.880814,21.8624031 C138.227713,21.8624031 135.249031,18.8556202 135.249031,15.1463178 C135.249031,11.4370155 138.227713,8.43023256 141.880814,8.43023256 C143.229651,8.40213178 144.550388,8.82364341 145.590116,9.55426357 L145.590116,9.55426357 Z M152.137597,19.5581395 C153.289729,19.5581395 154.273256,18.5184109 154.273256,17.1133721 C154.273256,15.7083333 153.261628,14.7810078 152.137597,14.7810078 C150.985465,14.7810078 150.08624,15.7364341 150.08624,17.1133721 C150.08624,18.4622093 151.013566,19.5581395 152.137597,19.5581395 L152.137597,19.5581395 Z M154.891473,20.7383721 L154.835271,20.4292636 C154.329457,21.4127907 152.727713,21.8624031 151.716085,21.8624031 C149.299419,21.8624031 147.500969,19.6705426 147.500969,17.0571705 C147.500969,14.4718992 149.327519,12.3362403 151.856589,12.3362403 C152.278101,12.3362403 153.739341,12.4486434 154.863372,13.7693798 L154.919574,13.4602713 C154.919574,12.8982558 155.341085,12.4486434 155.903101,12.4486434 C156.465116,12.4486434 156.914729,12.9263566 156.914729,13.4602713 L156.914729,20.7102713 C156.914729,21.2722868 156.465116,21.7218992 155.903101,21.7218992 C155.312984,21.75 154.891473,21.2722868 154.891473,20.7383721 Z M163.968023,19.5581395 C165.120155,19.5581395 166.01938,18.4622093 166.01938,17.1133721 C166.01938,15.7083333 165.092054,14.7810078 163.968023,14.7810078 C162.815891,14.7810078 161.832364,15.7083333 161.832364,17.1133721 C161.832364,18.5184109 162.815891,19.5581395 163.968023,19.5581395 Z M161.832364,21.1036822 L161.832364,24.3914729 C161.832364,25.122093 161.242248,25.7122093 160.539729,25.7122093 C159.837209,25.7122093 159.247093,25.122093 159.247093,24.3914729 L159.247093,13.4883721 C159.247093,12.9263566 159.696705,12.4767442 160.258721,12.4767442 C160.820736,12.4767442 161.242248,12.9544574 161.242248,13.6007752 C162.197674,12.6172481 163.377907,12.3643411 164.277132,12.3643411 C166.778101,12.3643411 168.632752,14.4718992 168.632752,17.0852713 C168.632752,19.6705426 166.862403,21.8905039 164.417636,21.8905039 C163.658915,21.8624031 162.534884,21.6375969 161.832364,21.1036822 L161.832364,21.1036822 Z" id="Shape"></path>
                </g>
            </g>
        </g>
    </g>
</svg>