<?xml version="1.0" encoding="UTF-8"?>
<svg width="134px" height="29px" viewBox="0 0 134 29" version="1.1" xmlns="http://www.w3.org/2000/svg" xmlns:xlink="http://www.w3.org/1999/xlink">
    <title>coinbase</title>
    <g id="landing" stroke="none" stroke-width="1" fill="none" fill-rule="evenodd">
        <g id="Artboard" transform="translate(-291.000000, -790.000000)" fill="#858785" fill-rule="nonzero">
            <g id="coinbase" transform="translate(291.000000, 790.000000)">
                <path d="M8.62162162,29 C4.26470588,29 0,25.8542373 0,18.7531406 C0,11.6289133 4.26470588,8.52941176 8.62162162,8.52941176 C10.7655008,8.52941176 12.4483307,9.08454636 13.6470588,9.87098704 L12.3330684,12.7623131 C11.5262321,12.1840479 10.327504,11.8139581 9.12877583,11.8139581 C6.50079491,11.8139581 4.10333863,13.8957129 4.10333863,18.7068794 C4.10333863,23.5180459 6.56995231,25.6460618 9.12877583,25.6460618 C10.327504,25.6460618 11.5262321,25.2759721 12.3330684,24.6977069 L13.6470588,27.6584247 C12.4022258,28.4911266 10.7655008,29 8.62162162,29" id="Fill-1"></path>
                <path d="M23.5,29 C18.0227273,29 15,24.6836158 15,18.9887006 C15,13.2937853 18,9 23.5,9 C28.9772727,9 32,13.2711864 32,18.9887006 C32,24.6836158 28.9772727,29 23.5,29 Z M23.5,12 C20.485,12 19,14.76771 19,18.9884679 C19,23.2092257 20.485,26 23.5,26 C26.515,26 28,23.2092257 28,18.9884679 C28,14.76771 26.515,12 23.5,12 Z" id="Fill-2"></path>
                <path d="M37.5,5 C36.1165049,5 35,4.10204082 35,3 C35,1.89795918 36.1165049,1 37.5,1 C38.8834951,1 40,1.89795918 40,3 C40,4.10204082 38.8592233,5 37.5,5 Z M36,9 L40,9 L40,28 L36,28 L36,9 Z" id="Fill-3"></path>
                <path d="M55.559083,28.1244578 L55.559083,15.3097045 C55.559083,13.0722079 54.1291522,11.6709474 51.316955,11.6709474 C49.8155277,11.6709474 48.4332612,11.9195581 47.5991349,12.2359718 L47.5991349,28.1470588 L43.5,28.1470588 L43.5,9.88547032 C45.5257353,9.09443616 48.1234429,8.52941176 51.2931228,8.52941176 C56.9651817,8.52941176 59.7058824,10.8799133 59.7058824,14.9480889 L59.7058824,28.1470588 L55.559083,28.1470588" id="Fill-4"></path>
                <path d="M69.4815864,29 C66.9886686,29 64.5184136,28.3765924 63,27.6146497 L63,0 L66.898017,0 L66.898017,9.46656051 C67.8271955,9.02786624 69.3229462,8.65843949 70.6600567,8.65843949 C75.6232295,8.65843949 79,12.3065287 79,18.3097134 C79,25.7213376 75.2379603,29 69.4815864,29 Z M70.01378,12 C68.9722531,12 67.7312849,12.2532895 67,12.6447368 L67,25.4934211 C67.5540037,25.7467105 68.6398509,26 69.7256981,26 C72.7616382,26 74.9998131,23.8125 74.9998131,18.8157895 C75.0219733,14.5328947 73.0718803,12 70.01378,12 Z" id="Fill-5"></path>
                <path d="M90.189911,29 C84.7596439,29 82,26.7627119 82,22.9661017 C82,17.6101695 87.6083086,16.6610169 93.3278932,16.3446328 L93.3278932,15.1242938 C93.3278932,12.7062147 91.7477745,11.8474576 89.3219585,11.8474576 C87.541543,11.8474576 85.3605341,12.4124294 84.0919881,13.0225989 L83.1127596,10.3559322 C84.6261128,9.6779661 87.1854599,9 89.7225519,9 C94.2403561,9 97,10.7853107 97,15.5310734 L97,27.6440678 C95.6424332,28.3898305 92.8605341,29 90.189911,29 L90.189911,29 Z M94,19 C89.9884726,19.196875 86,19.525 86,22.828125 C86,24.796875 87.5907781,26 90.610951,26 C91.8789625,26 93.3775216,25.803125 94,25.51875 L94,19 Z" id="Fill-6"></path>
                <path d="M105.862021,29 C103.595144,29 101.213778,28.3754736 99.7941176,27.6121635 L101.122187,24.5589232 C102.129688,25.1834497 104.259179,25.8311067 105.747533,25.8311067 C107.877023,25.8311067 109.296684,24.7670987 109.296684,23.1248255 C109.296684,21.3437687 107.80833,20.6498504 105.839124,19.909671 C103.22878,18.9150548 100.320766,17.7122632 100.320766,14.0344965 C100.320766,10.7962114 102.816621,8.52941176 107.144295,8.52941176 C109.502764,8.52941176 111.449072,9.10767697 112.822937,9.91724826 L111.586459,12.6929212 C110.716344,12.1377866 108.976115,11.5363908 107.579353,11.5363908 C105.518555,11.5363908 104.373668,12.6235294 104.373668,14.0576271 C104.373668,15.8386839 105.816226,16.4632104 107.739637,17.2033898 C110.441571,18.2211366 113.441176,19.3545364 113.441176,23.1942173 C113.418279,26.6869392 110.739242,29 105.862021,29" id="Fill-7"></path>
                <path d="M132.967413,18.920904 L120.693143,20.7062147 C121.062458,24.1638418 123.234895,25.9039548 126.34148,25.9039548 C128.188052,25.9039548 130.186694,25.4293785 131.446707,24.7288136 L132.532926,27.6440678 C131.099117,28.4350282 128.622539,29 126.080788,29 C120.258656,29 117,25.1129944 117,18.9887006 C117,13.1129944 120.150034,9 125.320434,9 C130.121521,9 132.967413,12.2768362 132.967413,17.4519774 C133.010862,17.9265537 133.010862,18.4237288 132.967413,18.920904 Z M124.849515,12 C121.966019,12 120.065534,14.1798561 120,18 L129,16.7697842 C128.956311,13.5755396 127.317961,12 124.849515,12 L124.849515,12 Z" id="Fill-8"></path>
            </g>
        </g>
    </g>
</svg>