<?xml version="1.0" encoding="UTF-8"?>
<svg width="16px" height="16px" viewBox="0 0 16 16" version="1.1" xmlns="http://www.w3.org/2000/svg" xmlns:xlink="http://www.w3.org/1999/xlink">
    <title>copyright</title>
    <g id="landing" stroke="none" stroke-width="1" fill="none" fill-rule="evenodd">
        <g id="Artboard" transform="translate(-651.000000, -2246.000000)" fill="#6A7280" fill-rule="nonzero">
            <g id="Group-14" transform="translate(651.000000, 2241.000000)">
                <g id="copyright" transform="translate(0.000000, 5.000000)">
                    <g id="Group" transform="translate(8.000000, 8.000000) scale(-1, 1) rotate(-180.000000) translate(-8.000000, -8.000000) ">
                        <path d="M7.35650531,15.9820453 C5.43292833,15.8131863 3.70641106,15.0090645 2.35213581,13.6511698 C0.331579992,11.6333531 -0.453556799,8.75507383 0.256478531,5.98620995 C0.400314155,5.4231287 0.541047761,5.04458393 0.835086306,4.45325063 C1.23851176,3.63361467 1.66707988,3.02970676 2.31458508,2.37582702 C3.54380007,1.13061398 5.08582897,0.342169579 6.82491758,0.0732035629 C7.26589376,0.00445147248 8.30131434,-0.0238005742 8.7641679,0.0232317347 C10.8441518,0.232754138 12.7958102,1.25276734 14.118902,2.82639 C15.1541593,4.05902843 15.8142359,5.62644545 15.9768469,7.23779195 C16.0237037,7.70076624 15.9956222,8.73645687 15.9268881,9.17754807 C15.6610942,10.8857354 14.9009368,12.3968116 13.6967012,13.6170388 C13.0273186,14.2928016 12.3892828,14.7557759 11.5510851,15.1687783 C10.7285609,15.572309 10.0373009,15.7913032 9.16775662,15.9165594 C8.66392378,15.9915171 7.80695081,16.0227087 7.35650531,15.9820453 Z M9.0611452,14.1205131 C11.5759013,13.6637445 13.5682124,11.7365629 14.081188,9.26491712 C14.2532683,8.43270654 14.2532683,7.57861288 14.081188,6.73709383 C13.5900898,4.33436341 11.6665128,2.41028472 9.26440894,1.91905838 C7.90066437,1.63751775 6.52761375,1.81274576 5.29203146,2.41649037 C3.49367801,3.29867277 2.2363816,4.96946288 1.88291494,6.94041058 C1.81401752,7.33152995 1.7859361,8.27625879 1.83279288,8.67995278 C2.08617868,10.8292313 3.4029032,12.6750861 5.34215352,13.6043008 C5.89888392,13.870164 6.60271521,14.0767469 7.24695513,14.1673821 C7.57544239,14.2113116 8.71714786,14.1830595 9.0611452,14.1205131 Z" id="Shape"></path>
                        <path d="M7.57544239,12.2996442 C6.98116127,12.2308921 6.5682665,12.1118416 6.0678622,11.8678615 C4.84485124,11.2734253 3.97220493,10.0783474 3.75636986,8.71424717 C3.69383973,8.32623062 3.71261509,7.55036083 3.79081857,7.19059633 C4.14428523,5.58561879 5.34215352,4.33109727 6.90605981,3.92430046 C8.07894871,3.62087675 9.33004108,3.84297376 10.3747677,4.54061968 C10.6844796,4.74703926 11.2568833,5.32596125 11.4663511,5.64195958 C11.6258601,5.88593968 11.9073273,6.43040398 11.9073273,6.49915607 C11.9073273,6.52414198 11.6570435,6.53361377 11.084803,6.53361377 L10.2590135,6.53361377 L10.1558306,6.38974063 C10.011995,6.1895267 9.73983383,5.9235002 9.52089675,5.77652424 C8.44498669,5.04442063 7.03748736,5.14452759 6.09594362,6.02050434 C5.68615087,6.39904911 5.39847962,6.89337827 5.2732561,7.42837078 C5.17627726,7.8475789 5.19815464,8.46079528 5.32337816,8.84881183 C5.91765928,10.7134469 8.10392811,11.4141957 9.64905902,10.2347952 C9.85232276,10.0783474 10.1713407,9.74046602 10.2088914,9.64035906 C10.2214628,9.60900419 10.4152572,9.59969571 11.0658644,9.59969571 C11.5288812,9.59969571 11.9073273,9.60916749 11.9073273,9.61847597 C11.9073273,9.63088727 11.8384299,9.78112937 11.7540224,9.95635738 C11.1285578,11.2515422 9.8807307,12.1245795 8.42621133,12.2872329 C8.13854008,12.3184245 7.77870613,12.3247934 7.57544239,12.2996442 Z" id="Path"></path>
                    </g>
                </g>
            </g>
        </g>
    </g>
</svg>