<?xml version="1.0" encoding="UTF-8"?>
<svg width="188px" height="29px" viewBox="0 0 188 29" version="1.1" xmlns="http://www.w3.org/2000/svg" xmlns:xlink="http://www.w3.org/1999/xlink">
    <title>PancakeSwap (CAKE)</title>
    <g id="landing" stroke="none" stroke-width="1" fill="none" fill-rule="evenodd">
        <g id="Artboard" transform="translate(-962.000000, -790.000000)">
            <g id="Markets" transform="translate(291.000000, 790.000000)">
                <g id="PancakeSwap-(CAKE)" transform="translate(671.000000, 0.000000)">
                    <path d="M36.3967611,22.5425101 C35.9271255,22.5425101 35.6923077,22.4251012 35.4574899,22.3076923 C35.340081,22.0728745 35.2226721,21.8380567 35.2226721,21.48583 L35.2226721,8.33603239 C35.2226721,7.98380567 35.340081,7.63157895 35.4574899,7.51417004 C35.6923077,7.27935223 35.9271255,7.16194332 36.3967611,7.16194332 L41.9149798,7.16194332 C44.0283401,7.16194332 45.5546559,7.63157895 46.611336,8.4534413 C47.5506073,9.39271255 48.1376518,10.6842105 48.1376518,12.4453441 C48.1376518,14.2064777 47.6680162,15.4979757 46.611336,16.437247 C45.6720648,17.2591093 44.0283401,17.7287449 41.9149798,17.7287449 L39.8016194,17.7287449 L39.8016194,21.3684211 C39.8016194,21.7206478 39.6842105,22.0728745 39.5668016,22.1902834 C39.3319838,22.4251012 39.097166,22.4251012 38.6275304,22.4251012 L36.3967611,22.4251012 L36.3967611,22.5425101 Z M41.562753,14.4412955 C42.1497976,14.4412955 42.6194332,14.3238866 42.9716599,13.9716599 C43.3238866,13.6194332 43.4412955,13.1497976 43.4412955,12.4453441 C43.4412955,11.7408907 43.3238866,11.2712551 42.9716599,10.9190283 C42.6194332,10.5668016 42.1497976,10.4493927 41.562753,10.4493927 L39.8016194,10.4493927 L39.8016194,14.4412955 L41.562753,14.4412955 L41.562753,14.4412955 Z" id="Shape" fill="#858785" fill-rule="nonzero"></path>
                    <path d="M53.4210526,22.8947368 C52.0121457,22.8947368 50.8380567,22.4251012 50.0161943,21.48583 C49.194332,20.5465587 48.7246964,19.2550607 48.7246964,17.611336 C48.7246964,16.3198381 48.9595142,15.2631579 49.5465587,14.3238866 C50.1336032,13.3846154 50.9554656,12.6801619 52.0121457,12.0931174 C53.0688259,11.6234818 54.3603239,11.2712551 55.6518219,11.2712551 C56.8259109,11.2712551 57.7651822,11.388664 58.7044534,11.6234818 C59.6437247,11.8582996 60.3481781,12.2105263 61.1700405,12.6801619 L61.1700405,21.7206478 C61.1700405,21.9554656 61.1700405,22.1902834 61.0526316,22.3076923 C60.9352227,22.4251012 60.7004049,22.4251012 60.465587,22.4251012 L58.1174089,22.4251012 C58,22.4251012 57.7651822,22.4251012 57.7651822,22.3076923 C57.6477733,22.1902834 57.6477733,22.1902834 57.5303644,22.0728745 L57.1781377,21.3684211 C56.708502,21.8380567 56.2388664,22.1902834 55.6518219,22.4251012 C55.0647773,22.7773279 54.242915,22.8947368 53.4210526,22.8947368 Z M55.0647773,19.8421053 C55.6518219,19.8421053 56.1214575,19.7246964 56.4736842,19.3724696 C56.8259109,19.1376518 56.9433198,18.6680162 56.9433198,18.1983806 L56.9433198,14.6761134 C56.708502,14.5587045 56.2388664,14.4412955 55.8866397,14.4412955 C55.0647773,14.4412955 54.4777328,14.6761134 54.0080972,15.2631579 C53.5384615,15.8502024 53.3036437,16.5546559 53.3036437,17.611336 C53.3036437,19.0202429 53.8906883,19.8421053 55.0647773,19.8421053 Z" id="Shape" fill="#858785" fill-rule="nonzero"></path>
                    <path d="M64.340081,22.5425101 C63.8704453,22.5425101 63.6356275,22.4251012 63.4008097,22.3076923 C63.1659919,22.0728745 63.1659919,21.8380567 63.1659919,21.48583 L63.1659919,12.3279352 C63.1659919,12.0931174 63.1659919,11.8582996 63.2834008,11.7408907 C63.4008097,11.6234818 63.6356275,11.6234818 63.8704453,11.6234818 L66.2186235,11.6234818 C66.4534413,11.6234818 66.5708502,11.6234818 66.5708502,11.7408907 C66.6882591,11.7408907 66.6882591,11.8582996 66.805668,11.9757085 L66.9230769,12.6801619 C67.3927126,12.2105263 67.8623482,11.9757085 68.5668016,11.7408907 C69.2712551,11.5060729 69.9757085,11.388664 70.9149798,11.388664 C72.0890688,11.388664 73.145749,11.7408907 73.8502024,12.4453441 C74.5546559,13.1497976 75.0242915,14.0890688 75.0242915,15.4979757 L75.0242915,21.48583 C75.0242915,21.8380567 74.9068826,22.1902834 74.7894737,22.3076923 C74.6720648,22.5425101 74.3198381,22.5425101 73.8502024,22.5425101 L71.6194332,22.5425101 C71.1497976,22.5425101 70.9149798,22.4251012 70.6801619,22.3076923 C70.4453441,22.0728745 70.4453441,21.8380567 70.4453441,21.48583 L70.4453441,15.7327935 C70.4453441,15.2631579 70.3279352,14.9109312 70.0931174,14.7935223 C69.8582996,14.5587045 69.6234818,14.4412955 69.1538462,14.4412955 C68.6842105,14.4412955 68.3319838,14.5587045 68.097166,14.7935223 C67.8623482,15.0283401 67.7449393,15.3805668 67.7449393,15.7327935 L67.7449393,21.3684211 C67.7449393,21.7206478 67.6275304,22.0728745 67.5101215,22.1902834 C67.3927126,22.4251012 67.0404858,22.4251012 66.5708502,22.4251012 L64.340081,22.4251012 L64.340081,22.5425101 Z" id="Path" fill="#858785" fill-rule="nonzero"></path>
                    <path d="M83.0080972,22.8947368 C80.8947368,22.8947368 79.2510121,22.4251012 78.0769231,21.3684211 C76.902834,20.4291498 76.3157895,19.0202429 76.3157895,17.1417004 C76.3157895,15.9676113 76.5506073,15.0283401 77.1376518,14.0890688 C77.6072874,13.2672065 78.4291498,12.562753 79.3684211,12.0931174 C80.4251012,11.6234818 81.5991903,11.388664 82.8906883,11.388664 C83.9473684,11.388664 84.7692308,11.5060729 85.4736842,11.7408907 C86.1781377,11.9757085 86.8825911,12.2105263 87.3522267,12.6801619 C87.4696356,12.7975709 87.5870445,12.9149798 87.5870445,13.0323887 C87.5870445,13.1497976 87.4696356,13.2672065 87.3522267,13.5020243 L86.4129555,15.145749 C86.2955466,15.3805668 86.1781377,15.4979757 86.0607287,15.4979757 C85.9433198,15.4979757 85.8259109,15.3805668 85.5910931,15.2631579 C85.2388664,15.0283401 84.7692308,14.7935223 84.417004,14.6761134 C84.0647773,14.5587045 83.5951417,14.4412955 83.1255061,14.4412955 C82.4210526,14.4412955 81.7165992,14.6761134 81.2469636,15.145749 C80.7773279,15.6153846 80.5425101,16.3198381 80.5425101,17.1417004 C80.5425101,17.9635628 80.7773279,18.6680162 81.2469636,19.1376518 C81.7165992,19.6072874 82.3036437,19.8421053 83.1255061,19.8421053 C83.5951417,19.8421053 84.0647773,19.7246964 84.417004,19.6072874 C84.7692308,19.4898785 85.2388664,19.2550607 85.5910931,19.0202429 C85.8259109,18.902834 85.9433198,18.7854251 86.0607287,18.7854251 C86.1781377,18.7854251 86.2955466,18.902834 86.4129555,19.1376518 L87.4696356,20.8987854 C87.5870445,21.0161943 87.5870445,21.1336032 87.5870445,21.2510121 C87.5870445,21.3684211 87.4696356,21.48583 87.3522267,21.6032389 C86.7651822,21.9554656 86.0607287,22.3076923 85.2388664,22.5425101 C84.8866397,22.7773279 84.0647773,22.8947368 83.0080972,22.8947368 Z" id="Path" fill="#858785" fill-rule="nonzero"></path>
                    <path d="M93.6923077,22.8947368 C92.2834008,22.8947368 91.1093117,22.4251012 90.2874494,21.48583 C89.465587,20.5465587 88.9959514,19.2550607 88.9959514,17.611336 C88.9959514,16.3198381 89.2307692,15.2631579 89.8178138,14.3238866 C90.4048583,13.3846154 91.2267206,12.6801619 92.2834008,12.0931174 C93.340081,11.6234818 94.6315789,11.2712551 95.9230769,11.2712551 C97.097166,11.2712551 98.0364372,11.388664 98.9757085,11.6234818 C99.9149798,11.8582996 100.619433,12.2105263 101.441296,12.6801619 L101.441296,21.7206478 C101.441296,21.9554656 101.441296,22.1902834 101.323887,22.3076923 C101.206478,22.4251012 100.97166,22.4251012 100.736842,22.4251012 L98.388664,22.4251012 C98.2712551,22.4251012 98.0364372,22.4251012 98.0364372,22.3076923 C97.9190283,22.1902834 97.9190283,22.1902834 97.8016194,22.0728745 L97.4493927,21.3684211 C96.9797571,21.8380567 96.5101215,22.1902834 95.9230769,22.4251012 C95.3360324,22.7773279 94.6315789,22.8947368 93.6923077,22.8947368 Z M95.4534413,19.8421053 C96.0404858,19.8421053 96.5101215,19.7246964 96.8623482,19.3724696 C97.2145749,19.1376518 97.3319838,18.6680162 97.3319838,18.1983806 L97.3319838,14.6761134 C97.097166,14.5587045 96.6275304,14.4412955 96.2753036,14.4412955 C95.4534413,14.4412955 94.8663968,14.6761134 94.3967611,15.2631579 C93.9271255,15.8502024 93.6923077,16.5546559 93.6923077,17.611336 C93.5748988,19.0202429 94.1619433,19.8421053 95.4534413,19.8421053 Z" id="Shape" fill="#858785" fill-rule="nonzero"></path>
                    <path d="M115.765182,21.7206478 C115.882591,21.8380567 115.882591,21.9554656 115.882591,22.0728745 C115.882591,22.1902834 115.882591,22.3076923 115.765182,22.4251012 C115.647773,22.5425101 115.530364,22.5425101 115.412955,22.5425101 L111.890688,22.5425101 C111.65587,22.5425101 111.538462,22.5425101 111.421053,22.5425101 C111.303644,22.5425101 111.186235,22.4251012 111.068826,22.3076923 L108.016194,18.0809717 L108.016194,21.3684211 C108.016194,21.7206478 107.898785,22.0728745 107.781377,22.1902834 C107.546559,22.4251012 107.311741,22.4251012 106.842105,22.4251012 L104.611336,22.4251012 C104.1417,22.4251012 103.906883,22.3076923 103.672065,22.1902834 C103.554656,21.9554656 103.437247,21.7206478 103.437247,21.3684211 L103.437247,8.33603239 C103.437247,7.98380567 103.554656,7.63157895 103.672065,7.51417004 C103.906883,7.27935223 104.1417,7.16194332 104.611336,7.16194332 L106.842105,7.16194332 C107.311741,7.16194332 107.546559,7.27935223 107.781377,7.51417004 C108.016194,7.74898785 108.016194,7.98380567 108.016194,8.33603239 L108.016194,15.8502024 L110.951417,11.9757085 C111.068826,11.8582996 111.186235,11.7408907 111.303644,11.7408907 C111.421053,11.7408907 111.538462,11.6234818 111.773279,11.6234818 L115.295547,11.6234818 C115.412955,11.6234818 115.530364,11.6234818 115.647773,11.7408907 C115.765182,11.8582996 115.765182,11.9757085 115.765182,12.0931174 C115.765182,12.2105263 115.765182,12.3279352 115.647773,12.4453441 L111.773279,16.9068826 L115.765182,21.7206478 Z" id="Path" fill="#858785" fill-rule="nonzero"></path>
                    <path d="M123.044534,22.8947368 C121.753036,22.8947368 120.696356,22.659919 119.639676,22.3076923 C118.700405,21.8380567 117.878543,21.2510121 117.291498,20.4291498 C116.704453,19.6072874 116.469636,18.5506073 116.469636,17.3765182 C116.469636,15.4979757 117.05668,13.9716599 118.11336,13.0323887 C119.17004,11.9757085 120.813765,11.5060729 122.809717,11.5060729 C124.805668,11.5060729 126.331984,11.9757085 127.271255,13.0323887 C128.327935,13.9716599 128.797571,15.3805668 128.797571,17.1417004 C128.797571,17.8461538 128.445344,18.3157895 127.8583,18.3157895 L120.813765,18.3157895 C120.813765,19.0202429 121.048583,19.4898785 121.518219,19.8421053 C121.987854,20.194332 122.809717,20.3117409 123.748988,20.3117409 C124.336032,20.3117409 124.923077,20.3117409 125.275304,20.194332 C125.744939,20.0769231 126.097166,19.8421053 126.566802,19.7246964 C126.801619,19.6072874 126.919028,19.6072874 126.919028,19.6072874 C127.036437,19.6072874 127.153846,19.7246964 127.271255,19.8421053 L128.093117,21.2510121 C128.210526,21.3684211 128.210526,21.48583 128.210526,21.6032389 C128.210526,21.7206478 128.093117,21.8380567 127.975709,21.9554656 C127.388664,22.3076923 126.684211,22.659919 125.862348,22.8947368 C124.923077,22.7773279 124.101215,22.8947368 123.044534,22.8947368 Z M124.805668,15.8502024 C124.805668,15.2631579 124.688259,14.7935223 124.336032,14.5587045 C123.983806,14.2064777 123.51417,14.0890688 122.809717,14.0890688 C122.105263,14.0890688 121.635628,14.2064777 121.283401,14.5587045 C120.931174,14.9109312 120.813765,15.2631579 120.813765,15.8502024 L124.805668,15.8502024 Z" id="Shape" fill="#858785" fill-rule="nonzero"></path>
                    <path d="M136.663968,22.8947368 C135.37247,22.8947368 134.198381,22.7773279 133.024291,22.5425101 C131.850202,22.3076923 131.02834,21.8380567 130.323887,21.3684211 C130.089069,21.2510121 129.97166,21.0161943 129.97166,20.8987854 C129.97166,20.7813765 129.97166,20.6639676 130.089069,20.5465587 L131.145749,18.7854251 C131.263158,18.5506073 131.380567,18.5506073 131.497976,18.5506073 C131.615385,18.5506073 131.732794,18.5506073 131.850202,18.6680162 C132.437247,19.0202429 133.024291,19.2550607 133.728745,19.4898785 C134.433198,19.7246964 135.137652,19.8421053 135.842105,19.8421053 C136.546559,19.8421053 137.016194,19.7246964 137.368421,19.4898785 C137.720648,19.2550607 137.838057,18.902834 137.838057,18.4331984 C137.838057,17.9635628 137.603239,17.611336 137.251012,17.3765182 C136.898785,17.1417004 136.194332,16.7894737 135.137652,16.437247 C133.611336,15.8502024 132.437247,15.2631579 131.615385,14.5587045 C130.793522,13.854251 130.323887,12.7975709 130.323887,11.6234818 C130.323887,10.097166 130.910931,9.04048583 131.967611,8.21862348 C133.024291,7.39676113 134.433198,7.04453441 136.194332,7.04453441 C137.48583,7.04453441 138.54251,7.16194332 139.364372,7.39676113 C140.303644,7.63157895 141.008097,7.98380567 141.595142,8.33603239 C141.82996,8.5708502 141.947368,8.68825911 141.947368,8.92307692 C141.947368,9.04048583 141.947368,9.15789474 141.82996,9.27530364 L140.773279,11.0364372 C140.65587,11.2712551 140.538462,11.2712551 140.421053,11.2712551 C140.303644,11.2712551 140.186235,11.2712551 140.068826,11.1538462 C139.246964,10.5668016 138.190283,10.3319838 136.898785,10.3319838 C136.194332,10.3319838 135.724696,10.4493927 135.37247,10.6842105 C135.020243,10.9190283 134.902834,11.2712551 134.902834,11.7408907 C134.902834,12.0931174 135.020243,12.3279352 135.137652,12.562753 C135.37247,12.7975709 135.607287,12.9149798 135.842105,13.1497976 C136.194332,13.2672065 136.663968,13.5020243 137.251012,13.7368421 L137.720648,13.854251 C138.777328,14.3238866 139.716599,14.6761134 140.303644,15.145749 C141.008097,15.4979757 141.477733,16.0850202 141.82996,16.6720648 C142.182186,17.2591093 142.299595,17.9635628 142.299595,18.7854251 C142.299595,20.0769231 141.82996,21.2510121 140.773279,21.9554656 C140.068826,22.4251012 138.54251,22.8947368 136.663968,22.8947368 Z" id="Path" fill="#858785" fill-rule="nonzero"></path>
                    <path d="M147.348178,22.5425101 C147.11336,22.5425101 146.995951,22.5425101 146.878543,22.4251012 C146.761134,22.3076923 146.643725,22.1902834 146.643725,21.9554656 L143.708502,12.2105263 C143.708502,12.0931174 143.708502,12.0931174 143.708502,11.9757085 C143.708502,11.7408907 143.825911,11.6234818 144.178138,11.6234818 L147.11336,11.6234818 C147.348178,11.6234818 147.465587,11.6234818 147.582996,11.7408907 C147.700405,11.8582996 147.700405,11.8582996 147.817814,12.0931174 L148.991903,17.2591093 L150.518219,13.1497976 C150.635628,12.9149798 150.635628,12.7975709 150.753036,12.7975709 C150.870445,12.6801619 150.987854,12.6801619 151.222672,12.6801619 L152.631579,12.6801619 C152.866397,12.6801619 152.983806,12.6801619 153.101215,12.7975709 C153.218623,12.9149798 153.218623,13.0323887 153.336032,13.1497976 L154.862348,17.2591093 L156.153846,12.0931174 C156.153846,11.9757085 156.271255,11.8582996 156.388664,11.7408907 C156.506073,11.6234818 156.623482,11.6234818 156.740891,11.6234818 L159.793522,11.6234818 C160.145749,11.6234818 160.263158,11.7408907 160.263158,11.9757085 C160.263158,11.9757085 160.263158,12.0931174 160.263158,12.2105263 L157.327935,21.9554656 C157.210526,22.1902834 157.210526,22.3076923 157.093117,22.4251012 C156.975709,22.5425101 156.8583,22.5425101 156.623482,22.5425101 L154.392713,22.5425101 C154.157895,22.5425101 154.040486,22.5425101 153.923077,22.4251012 C153.805668,22.3076923 153.688259,22.1902834 153.688259,21.9554656 L152.161943,17.8461538 L150.635628,21.9554656 C150.518219,22.1902834 150.518219,22.3076923 150.40081,22.4251012 C150.283401,22.5425101 150.165992,22.5425101 149.931174,22.5425101 L147.348178,22.5425101 Z" id="Path" fill="#858785" fill-rule="nonzero"></path>
                    <path d="M165.663968,22.8947368 C164.255061,22.8947368 163.080972,22.4251012 162.259109,21.48583 C161.437247,20.5465587 160.967611,19.2550607 160.967611,17.611336 C160.967611,16.3198381 161.202429,15.2631579 161.789474,14.3238866 C162.376518,13.3846154 163.198381,12.6801619 164.255061,12.0931174 C165.311741,11.6234818 166.603239,11.2712551 167.894737,11.2712551 C169.068826,11.2712551 170.008097,11.388664 170.947368,11.6234818 C171.88664,11.8582996 172.591093,12.2105263 173.412955,12.6801619 L173.412955,21.7206478 C173.412955,21.9554656 173.412955,22.1902834 173.295547,22.3076923 C173.178138,22.4251012 172.94332,22.4251012 172.708502,22.4251012 L170.360324,22.4251012 C170.242915,22.4251012 170.125506,22.4251012 170.008097,22.3076923 C169.890688,22.1902834 169.890688,22.1902834 169.773279,22.0728745 L169.421053,21.3684211 C168.951417,21.8380567 168.481781,22.1902834 167.894737,22.4251012 C167.307692,22.7773279 166.603239,22.8947368 165.663968,22.8947368 Z M167.425101,19.8421053 C168.012146,19.8421053 168.481781,19.7246964 168.834008,19.3724696 C169.186235,19.1376518 169.303644,18.6680162 169.303644,18.1983806 L169.303644,14.6761134 C169.068826,14.5587045 168.59919,14.4412955 168.246964,14.4412955 C167.425101,14.4412955 166.838057,14.6761134 166.368421,15.2631579 C165.898785,15.8502024 165.663968,16.5546559 165.663968,17.611336 C165.546559,19.0202429 166.133603,19.8421053 167.425101,19.8421053 Z" id="Shape" fill="#858785" fill-rule="nonzero"></path>
                    <path d="M176.582996,27.1214575 C176.11336,27.1214575 175.878543,27.0040486 175.643725,26.8866397 C175.526316,26.6518219 175.408907,26.417004 175.408907,26.0647773 L175.408907,13.1497976 C176.11336,12.6801619 176.935223,12.2105263 177.991903,11.9757085 C179.048583,11.6234818 180.105263,11.5060729 181.161943,11.5060729 C185.740891,11.5060729 187.97166,13.3846154 187.97166,17.2591093 C187.97166,19.0202429 187.502024,20.4291498 186.562753,21.48583 C185.623482,22.5425101 184.214575,23.0121457 182.453441,23.0121457 C181.983806,23.0121457 181.51417,22.8947368 181.044534,22.7773279 C180.574899,22.659919 180.222672,22.5425101 179.870445,22.3076923 L179.870445,26.0647773 C179.870445,26.417004 179.753036,26.7692308 179.635628,26.8866397 C179.40081,27.1214575 179.165992,27.1214575 178.696356,27.1214575 L176.582996,27.1214575 L176.582996,27.1214575 Z M181.51417,19.8421053 C182.218623,19.8421053 182.688259,19.6072874 182.923077,19.1376518 C183.275304,18.6680162 183.392713,17.9635628 183.392713,17.1417004 C183.392713,16.2024291 183.157895,15.4979757 182.805668,15.0283401 C182.453441,14.6761134 181.866397,14.4412955 181.044534,14.4412955 C180.574899,14.4412955 180.105263,14.5587045 179.870445,14.6761134 L179.870445,18.1983806 C179.870445,18.6680162 179.987854,19.1376518 180.340081,19.3724696 C180.574899,19.7246964 181.044534,19.8421053 181.51417,19.8421053 Z" id="Shape" fill="#858785" fill-rule="nonzero"></path>
                    <path d="M5.28340081,4.57894737 C4.81376518,2.23076923 6.69230769,0 9.04048583,0 C11.1538462,0 12.9149798,1.7611336 12.9149798,3.87449393 L12.9149798,8.5708502 C13.5020243,8.5708502 13.9716599,8.5708502 14.5587045,8.5708502 C15.0283401,8.5708502 15.6153846,8.5708502 16.0850202,8.5708502 L16.0850202,3.87449393 C16.0850202,1.7611336 17.8461538,0 19.9595142,0 C22.3076923,0 24.1862348,2.23076923 23.7165992,4.57894737 L22.659919,10.097166 C26.1821862,11.6234818 28.8825911,14.3238866 28.8825911,17.7287449 L28.8825911,19.7246964 C28.8825911,22.5425101 27.0040486,24.8906883 24.4210526,26.417004 C21.8380567,28.0607287 18.3157895,29 14.4412955,29 C10.5668016,29 7.04453441,28.0607287 4.46153846,26.417004 C1.87854251,24.8906883 0,22.5425101 0,19.7246964 L0,17.7287449 C0,14.3238866 2.70040486,11.6234818 6.22267206,10.097166 L5.28340081,4.57894737 Z M21.3684211,10.9190283 L22.5425101,4.46153846 C22.8947368,2.81781377 21.6032389,1.29149798 19.9595142,1.29149798 C18.4331984,1.29149798 17.2591093,2.46558704 17.2591093,3.99190283 L17.2591093,9.97975709 C16.9068826,9.97975709 16.437247,9.86234818 16.0850202,9.86234818 C15.6153846,9.86234818 15.0283401,9.86234818 14.5587045,9.86234818 C13.9716599,9.86234818 13.5020243,9.86234818 12.9149798,9.97975709 C12.562753,9.97975709 12.0931174,10.097166 11.7408907,10.097166 L11.7408907,4.10931174 C11.7408907,2.58299595 10.5668016,1.40890688 9.04048583,1.40890688 C7.39676113,1.40890688 6.10526316,2.93522267 6.45748988,4.57894737 L7.63157895,11.1538462 C3.87449393,12.562753 1.29149798,15.145749 1.29149798,18.0809717 L1.29149798,20.0769231 C1.29149798,24.5384615 7.16194332,28.1781377 14.4412955,28.1781377 C21.7206478,28.1781377 27.5910931,24.5384615 27.5910931,20.0769231 L27.5910931,18.0809717 C27.708502,14.9109312 25.1255061,12.3279352 21.3684211,10.9190283 Z" id="Shape" fill="#858785"></path>
                    <path d="M27.708502,19.8421053 C27.708502,24.3036437 21.8380567,27.9433198 14.5587045,27.9433198 C7.27935223,27.9433198 1.40890688,24.3036437 1.40890688,19.8421053 L1.40890688,17.8461538 L27.8259109,17.8461538 L27.8259109,19.8421053 L27.708502,19.8421053 Z" id="Path" fill="#858785" fill-rule="nonzero"></path>
                    <path d="M6.45748988,4.34412955 C6.10526316,2.70040486 7.39676113,1.17408907 9.04048583,1.17408907 C10.5668016,1.17408907 11.7408907,2.34817814 11.7408907,3.87449393 L11.7408907,9.97975709 C12.6801619,9.86234818 13.6194332,9.74493927 14.5587045,9.74493927 C15.4979757,9.74493927 16.437247,9.86234818 17.2591093,9.86234818 L17.2591093,3.87449393 C17.2591093,2.34817814 18.4331984,1.17408907 19.9595142,1.17408907 C21.6032389,1.17408907 22.8947368,2.70040486 22.5425101,4.34412955 L21.3684211,10.8016194 C25.242915,12.2105263 27.8259109,14.7935223 27.8259109,17.7287449 C27.8259109,22.1902834 21.9554656,25.8299595 14.6761134,25.8299595 C7.39676113,25.8299595 1.52631579,22.1902834 1.52631579,17.7287449 C1.52631579,14.7935223 4.10931174,12.2105263 7.86639676,10.8016194 L6.45748988,4.34412955 Z" id="Path" fill="#858785"></path>
                    <path d="M10.9190283,17.2591093 C10.9190283,18.4331984 10.2145749,19.4898785 9.51012146,19.4898785 C8.80566802,19.4898785 8.10121457,18.5506073 8.10121457,17.2591093 C8.10121457,16.0850202 8.80566802,15.0283401 9.51012146,15.0283401 C10.2145749,15.0283401 10.9190283,15.9676113 10.9190283,17.2591093 Z" id="Path" fill="#FFFFFF" fill-rule="nonzero"></path>
                    <path d="M21.0161943,17.2591093 C21.0161943,18.4331984 20.3117409,19.4898785 19.6072874,19.4898785 C18.7854251,19.4898785 18.1983806,18.5506073 18.1983806,17.2591093 C18.1983806,16.0850202 18.902834,15.0283401 19.6072874,15.0283401 C20.3117409,15.0283401 21.0161943,15.9676113 21.0161943,17.2591093 Z" id="Path" fill="#FFFFFF" fill-rule="nonzero"></path>
                </g>
            </g>
        </g>
    </g>
</svg>