<?xml version="1.0" encoding="UTF-8"?>
<svg width="39px" height="46px" viewBox="0 0 39 46" version="1.1" xmlns="http://www.w3.org/2000/svg" xmlns:xlink="http://www.w3.org/1999/xlink">
    <title>reward</title>
    <g id="landing" stroke="none" stroke-width="1" fill="none" fill-rule="evenodd">
        <g id="Artboard" transform="translate(-338.000000, -1239.000000)" fill="#AA6D2D" fill-rule="nonzero">
            <g id="Features" transform="translate(280.000000, 1237.000000)">
                <g id="Group-7" transform="translate(0.000000, 2.000000)">
                    <g id="reward" transform="translate(58.000000, 0.000000)">
                        <path d="M19,0 C8.507109,0 0,8.507109 0,19 C0,29.492891 8.507109,38 19,38 C29.492891,38 38,29.492891 38,19 C38,8.507109 29.492891,0 19,0 L19,0 Z M19,35.8909953 C9.67298578,35.8909953 2.10900474,28.3317536 2.10900474,19 C2.10900474,9.67298578 9.66824645,2.10900474 19,2.10900474 C28.3270142,2.10900474 35.8909953,9.66824645 35.8909953,19 C35.8909953,28.3270142 28.3270142,35.8909953 19,35.8909953 L19,35.8909953 Z" id="Shape"></path>
                        <path d="M13.901684,35.6142815 L8.62565226,43.4808311 L8.2627506,43.2186128 L7.62534642,39.4585894 C7.57882056,39.1823237 7.42528525,38.9388352 7.19730857,38.7796313 C6.96933188,38.6204273 6.68552418,38.5595552 6.41567423,38.6063799 L2.84714129,39.2619257 L2.44701895,38.9716125 L7.40202232,31.5873573 C6.89023793,31.086333 6.41102165,30.5572139 5.96437345,30 L0.17655731,38.6391572 C-0.135165907,39.1074042 -0.0235038592,39.7395376 0.427796917,40.0673105 L1.99571817,41.2145157 C2.22369485,41.3830846 2.51215514,41.4439567 2.79131026,41.397132 L5.76431229,40.849283 L6.29470701,43.9865379 C6.34123287,44.2534387 6.4901156,44.4922447 6.70878711,44.6561311 L8.27670836,45.8033363 C8.4535066,45.9297629 8.66752553,46 8.88619704,46 C8.94668065,46 9.00716426,45.9953175 9.06764787,45.9812701 C9.3421504,45.9344454 9.58873742,45.770559 9.74692532,45.5364355 L16,36.2136377 C15.2788493,36.0637987 14.5809615,35.8530875 13.901684,35.6142815 L13.901684,35.6142815 Z" id="Path"></path>
                        <path d="M25.0942724,35.6173201 L30.3718388,43.4815682 L30.7301921,43.2194266 L31.3677817,39.4605032 C31.414321,39.1843183 31.567901,38.9409011 31.795944,38.7817437 C32.023987,38.6225863 32.3078773,38.561732 32.5778057,38.608543 L36.1473766,39.263897 L36.5476153,38.9736688 L31.5911707,31.5868929 C32.103104,31.0860152 32.5824596,30.5570509 33.0292377,30 L38.8233913,38.6366296 C39.1352052,39.1047396 39.0235107,39.7366881 38.5720786,40.0643651 L37.0037013,41.2159157 C36.7756583,41.3844353 36.4871141,41.4452896 36.2078778,41.3984786 L33.234011,40.8507899 L32.703462,43.987127 C32.6569227,44.2539497 32.5079966,44.4926858 32.2892615,44.6565243 L30.7208842,45.8033938 C30.5440345,45.9297835 30.3299533,46 30.1112182,46 C30.050717,46 29.9902158,45.9953189 29.9297146,45.9812756 C29.6551322,45.9344646 29.4084735,45.7706261 29.2502396,45.5365711 L23,36.221182 C23.7167065,36.0667057 24.4147973,35.8560562 25.0942724,35.6173201 L25.0942724,35.6173201 Z" id="Path"></path>
                        <path d="M4,18.5 C4,27.0579334 10.9420666,34 19.5,34 C28.0579334,34 35,27.062672 35,18.5 C35,9.94206665 28.062672,3 19.5,3 C10.9420666,3 4,9.94206665 4,18.5 Z" id="Path"></path>
                    </g>
                </g>
            </g>
        </g>
    </g>
</svg>