<?xml version="1.0" encoding="UTF-8"?>
<svg width="1440px" height="110px" viewBox="0 0 1440 110" version="1.1" xmlns="http://www.w3.org/2000/svg" xmlns:xlink="http://www.w3.org/1999/xlink">
    <title>Path Copy</title>
    <g id="landing" stroke="none" stroke-width="1" fill="none" fill-rule="evenodd" opacity="0.5">
        <g id="Desktop-HD" transform="translate(0.000000, -2656.000000)" fill="#365A68" fill-rule="nonzero">
            <g id="wavesOpacity" transform="translate(720.000000, 1383.000000) scale(-1, 1) translate(-720.000000, -1383.000000) ">
                <path d="M0,2656 L0,2671.81155 C15.6,2692.92362 33.168,2712.86558 57.228,2728.05707 C119.292,2767.28091 198,2767.01089 269.496,2747.58898 C306.876,2737.43799 341.604,2721.51643 377.1,2707.78508 C426.204,2688.78322 478.776,2661.78057 534.096,2658.11021 C577.608,2655.25993 619.176,2667.53113 652.416,2689.6733 C690.54,2715.06579 727.2,2751.67938 776.772,2762.68046 C825.3,2773.47152 874.392,2755.98981 919.728,2738.39808 C965.064,2720.80636 1009.92,2699.39426 1060.032,2695.34386 C1131.708,2689.49328 1195.968,2718.2261 1262.712,2734.18767 C1298.952,2742.84852 1333.512,2740.35827 1367.22,2726.68693 C1394.136,2715.79586 1424.82,2699.75429 1440,2677.4421 L1440,2656 L0,2656 Z" id="Path-Copy" transform="translate(720.000000, 2711.000000) scale(1, -1) translate(-720.000000, -2711.000000) "></path>
            </g>
        </g>
    </g>
</svg>