<?xml version="1.0" encoding="UTF-8"?>
<svg width="320px" height="37px" viewBox="0 0 320 37" version="1.1" xmlns="http://www.w3.org/2000/svg" xmlns:xlink="http://www.w3.org/1999/xlink">
    <title>wavesOpacity Copy</title>
    <g id="landing" stroke="none" stroke-width="1" fill="none" fill-rule="evenodd">
        <g id="Mobile-Portrait" transform="translate(0.000000, -914.000000)" fill-rule="nonzero">
            <g id="wavesOpacity-Copy" transform="translate(160.000000, 932.500000) scale(-1, -1) translate(-160.000000, -932.500000) translate(0.000000, 914.000000)">
                <path d="M0,0 L0,15.7717289 C12.744,23.3356171 27.624,26.7325524 42.1333333,25.3117681 C60.896,23.4821248 78.488,13.9625287 97.28,12.53493 C116.970667,11.0494096 136.624,18.2862107 155.466667,24.5485649 C173.938667,30.6814472 192.346667,33.0255711 211.306667,29.005126 C220.946667,26.960832 229.933333,22.9267583 239.16,19.0085279 C263.864,8.51789206 296.8,-4.8688271 320,17.8773519 L320,0 L0,0 Z" id="Path" fill="#3B5A66" opacity="0.25"></path>
                <path d="M0,0 L0,5.31843067 C3.46666667,12.4197635 7.37066667,19.1275122 12.7173333,24.237377 C26.5093333,37.4308526 44,37.3400256 59.888,30.8072031 C68.1946667,27.3927773 75.912,22.037343 83.8,17.4186173 C94.712,11.0270814 106.394667,1.9443725 118.688,0.709796882 C128.357333,-0.248933504 137.594667,3.87865311 144.981333,11.3264744 C153.453333,19.8675848 161.6,32.1830653 172.616,35.8834282 C183.4,39.5131478 194.309333,33.6329347 204.384,27.7157181 C214.458667,21.7985014 224.426667,14.5962496 235.562667,13.2338433 C251.490667,11.265923 265.770667,20.9305981 280.602667,26.2994883 C288.656,29.2126831 296.336,28.3750555 303.826667,23.7765136 C309.808,20.1131543 316.626667,14.7173524 320,7.21234368 L320,0 L0,0 Z" id="Path" fill="#365A68" opacity="0.5"></path>
                <path d="M0,0 L0,1.91983271 C39.9813333,20.1190284 83.7573333,24.3201544 126.888,14.5163905 C138.354667,11.9111468 149.349333,7.65546082 160.917333,5.49351777 C176.650667,2.55068361 190.912,9.66736367 205.066667,17.5649348 C220.781333,26.3320572 236.266667,32.4768859 253.653333,30.6900434 C276.728,28.30304 299.642667,15.1029113 320,1.7697925 L320,0 L0,0 Z" id="Path" fill="#3B5F6C"></path>
            </g>
        </g>
    </g>
</svg>