
<svg width="1440px" height="110px" viewBox="0 0 1440 110" version="1.1" xmlns="http://www.w3.org/2000/svg" xmlns:xlink="http://www.w3.org/1999/xlink">
    <g id="landing" stroke="none" stroke-width="1" fill="none" fill-rule="evenodd">
        <g id="Desktop-HD" fill-rule="nonzero">
            <g id="wavesOpacity" transform="translate(720.000000, 55.000000) scale(-1, 1) translate(-720.000000, -55.000000) ">
                <path d="M0,0 L0,46.2976559 C57.348,68.5013276 124.308,78.4729765 189.6,74.3022869 C274.032,68.9313987 353.196,40.9867777 437.76,36.7960847 C526.368,32.4353636 614.808,53.6788765 699.6,72.0619164 C782.724,90.0648934 865.56,96.9460313 950.88,85.1440797 C994.26,79.1430873 1034.7,67.3011291 1076.22,55.7992271 C1187.388,25.0041348 1335.6,-14.2923634 1440,52.478678 L1440,0 L0,0 Z" id="Path" fill="#3B5A66" opacity="0.25"></path>
                <path d="M0,0 L0,15.8115506 C15.6,36.9236211 33.168,56.8655768 57.228,72.0570666 C119.292,111.280913 198,111.010887 269.496,91.5889821 C306.876,81.4379866 341.604,65.5164252 377.1,51.7850785 C426.204,32.783215 478.776,5.7805669 534.096,2.11020695 C577.608,-0.740072579 619.176,11.5311309 652.416,33.6733023 C690.54,59.0657926 727.2,95.6793832 776.772,106.680462 C825.3,117.47152 874.392,99.989806 919.728,82.3980808 C965.064,64.8063555 1009.92,43.3942557 1060.032,39.3438584 C1131.708,33.4932847 1195.968,62.2261025 1262.712,78.1876678 C1298.952,86.8485172 1333.512,84.358273 1367.22,70.6869322 C1394.136,59.7958642 1424.82,43.754291 1440,21.4421028 L1440,0 L0,0 Z" id="Path" fill="#365A68" opacity="0.5"></path>
                <path d="M0,0 L0,5.63563797 C179.916,59.0590835 376.908,71.3914209 570.996,42.6126302 C622.596,34.9649794 672.072,22.4724818 724.128,16.1261328 C794.928,7.48749058 859.104,28.3783901 922.8,51.5615829 C993.516,77.2973293 1063.2,95.3353748 1141.44,90.0901273 C1245.276,83.0831174 1348.392,44.3343527 1440,5.19519734 L1440,0 L0,0 Z" id="Path" fill="#3B5F6C"></path>
            </g>
        </g>
    </g>
</svg>