<?xml version="1.0" encoding="UTF-8"?>
<svg width="480px" height="192px" viewBox="0 0 325 92" version="1.1" xmlns="http://www.w3.org/2000/svg" xmlns:xlink="http://www.w3.org/1999/xlink">
    <title>Group 8</title>
    <g id="landing" stroke="none" stroke-width="1" fill="none" fill-rule="evenodd">
        <g id="Desktop-HD" transform="translate(-53.000000, -118.000000)">
            <g id="Group-8" transform="translate(53.000000, 118.000000)">
                <g id="Group-3" fill="#2B4D5A">
                    <path d="M46,0 C58.9685322,0 70.6836267,5.36660463 79.0456365,14.0001669 L292.5,14 C310.449254,14 325,28.5507456 325,46.5 C325,64.4492544 310.449254,79 292.5,79 L78.0458245,79.0010299 C69.7622287,87.0463327 58.4596098,92 46,92 C20.5949015,92 0,71.4050985 0,46 C0,20.5949015 20.5949015,0 46,0 Z" id="Combined-Shape"></path>
                </g>
                <g id="gong-svgrepo-com" transform="translate(24.000000, 20.000000)" fill="#D69E2E" fill-rule="nonzero">
                    <path d="M27.631,39.246 L32.863,42.491 C29.404,46.266 24.448,48.648 18.924,48.648 C8.472,48.648 0,40.175 0,29.724 C0,22.226 4.371,15.767 10.694,12.703 L19.815,0.224 L13.269,11.66 C15.055,11.101 16.954,10.799 18.924,10.799 C21.123,10.799 23.226,11.194 25.19,11.884 L20.241,0 L27.544,12.891 C33.657,16.028 37.848,22.381 37.848,29.724 C37.848,32.492 37.24,35.113 36.172,37.483 L31.004,34.278 C31.541,32.859 31.848,31.328 31.848,29.724 C31.848,22.598 26.05,16.799 18.924,16.799 C11.798,16.799 6,22.597 6,29.723 C6,36.849 11.798,42.647 18.924,42.647 C22.28,42.647 25.331,41.351 27.631,39.246 Z M20.57,27.173 C21.15,27.173 21.713,27.325 22.198,27.613 L23.689,28.497 C23.141,26.367 21.224,24.786 18.923,24.786 C16.196,24.786 13.985,26.997 13.985,29.724 C13.985,31.991 15.521,33.88 17.602,34.461 C16.236,33.341 15.946,31.168 17.018,29.36 C17.819,28.011 19.18,27.173 20.57,27.173 Z M29.715,33.479 C30.126,32.301 30.361,31.04 30.361,29.724 C30.361,23.417 25.23,18.286 18.923,18.286 C12.616,18.286 7.486,23.417 7.486,29.724 C7.486,36.031 12.617,41.162 18.924,41.162 C21.744,41.162 24.324,40.131 26.32,38.434 L25.883,38.163 C23.992,39.724 21.567,40.662 18.924,40.662 C12.883,40.662 7.986,35.765 7.986,29.724 C7.986,23.683 12.883,18.786 18.924,18.786 C24.965,18.786 29.862,23.683 29.862,29.724 C29.862,30.945 29.653,32.115 29.284,33.212 L29.715,33.479 Z M28.704,32.852 C29.021,31.865 29.195,30.815 29.195,29.724 C29.195,24.06 24.587,19.453 18.924,19.453 C13.26,19.453 8.653,24.061 8.653,29.724 C8.653,35.387 13.261,39.995 18.924,39.995 C21.32,39.995 23.522,39.164 25.271,37.783 L24.819,37.503 C23.179,38.748 21.141,39.495 18.923,39.495 C13.526,39.495 9.152,35.12 9.152,29.724 C9.152,24.327 13.527,19.953 18.923,19.953 C24.32,19.953 28.694,24.328 28.694,29.724 C28.694,30.719 28.543,31.678 28.267,32.582 L28.704,32.852 Z M27.674,32.213 C27.9,31.421 28.029,30.588 28.029,29.724 C28.029,24.704 23.945,20.619 18.924,20.619 C13.904,20.619 9.819,24.703 9.819,29.724 C9.819,34.744 13.903,38.829 18.924,38.829 C20.895,38.829 22.716,38.193 24.208,37.124 L23.756,36.843 C22.378,37.78 20.716,38.328 18.924,38.328 C14.172,38.328 10.319,34.475 10.319,29.723 C10.319,24.971 14.171,21.118 18.924,21.118 C23.676,21.118 27.529,24.97 27.529,29.723 C27.529,30.49 27.419,31.23 27.231,31.937 L27.674,32.213 Z M26.32,31.374 L26.558,31.522 C26.694,30.944 26.774,30.344 26.774,29.725 C26.774,25.396 23.252,21.875 18.924,21.875 C14.595,21.875 11.074,25.397 11.074,29.725 C11.074,34.054 14.596,37.575 18.924,37.575 C20.223,37.575 21.447,37.253 22.527,36.692 C22.411,36.704 22.295,36.72 22.181,36.72 C21.929,36.72 21.683,36.679 21.443,36.623 C20.656,36.911 19.81,37.076 18.924,37.076 C14.865,37.076 11.574,33.785 11.574,29.726 C11.574,25.667 14.865,22.376 18.924,22.376 C22.983,22.376 26.274,25.667 26.274,29.726 C26.274,30.124 26.234,30.512 26.173,30.892 C26.228,31.048 26.286,31.205 26.32,31.374 Z M46.912,45.321 L35.734,38.389 L30.608,35.21 L29.34,34.424 L28.916,34.161 L28.344,33.806 L27.92,33.543 L27.341,33.184 L26.909,32.916 L26.253,32.509 L25.821,32.241 L25.394,31.976 C25.337,31.15 24.965,30.415 24.29,30.015 L23.858,29.759 L21.689,28.473 C21.345,28.269 20.963,28.173 20.571,28.173 C19.574,28.173 18.515,28.798 17.88,29.87 C16.994,31.364 17.264,33.16 18.483,33.883 L19.671,34.588 L21.084,35.426 C21.422,35.627 21.797,35.72 22.182,35.72 C22.58,35.72 22.989,35.62 23.378,35.433 L23.473,35.492 L23.925,35.772 L24.594,36.187 L25.032,36.458 L25.624,36.825 L26.061,37.096 L26.654,37.464 L27.08,37.729 L28.362,38.524 L33.544,41.738 L44.804,48.721 C45.087,48.896 45.396,48.992 45.705,49.015 C45.755,49.019 45.806,49.021 45.856,49.021 C46.525,49.021 47.179,48.685 47.558,48.075 C48.14,47.136 47.851,45.903 46.912,45.321 Z" id="Shape"></path>
                </g>
                <text id="GongSwap" font-family="Lato-Bold, Lato" font-size="39" font-weight="bold" fill="#D69E2E">
                    <tspan x="95" y="61">GongSwap</tspan>
                </text>
            </g>
        </g>
    </g>
</svg>